Sarala-Bold.ufo
<glyph name="quotesingle" format="1">
  <advance width="248"/>
  <unicode hex="0027"/>
  <outline>
    <contour>
      <point x="184" y="729" type="line"/>
      <point x="64" y="729" type="line"/>
      <point x="74" y="445" type="line"/>
      <point x="174" y="445" type="line"/>
    </contour>
  </outline>
</glyph>
<glyph name="asterisk" format="1">
  <advance width="399"/>
  <unicode hex="002A"/>
  <outline>
    <contour>
      <point x="229" y="593" type="line"/>
      <point x="251" y="727" type="line"/>
      <point x="149" y="727" type="line"/>
      <point x="168" y="593" type="line"/>
      <point x="45" y="657" type="line"/>
      <point x="15" y="560" type="line"/>
      <point x="150" y="535" type="line"/>
      <point x="49" y="435" type="line"/>
      <point x="132" y="376" type="line"/>
      <point x="198" y="503" type="line"/>
      <point x="264" y="376" type="line"/>
      <point x="347" y="436" type="line"/>
      <point x="249" y="536" type="line"/>
      <point x="386" y="560" type="line"/>
      <point x="355" y="655" type="line"/>
    </contour>
  </outline>
</glyph>
<glyph name="comma" format="1">
  <advance width="249"/>
  <unicode hex="002C"/>
  <outline>
    <contour>
      <point x="227" y="135" type="line"/>
      <point x="80" y="135" type="line"/>
      <point x="19" y="-134" type="line"/>
      <point x="117" y="-134" type="line"/>
    </contour>
  </outline>
</glyph>
<glyph name="zero" format="1">
  <advance width="642"/>
  <unicode hex="0030"/>
  <outline>
    <contour>
      <point x="140" y="717"/>
      <point x="46" y="592"/>
      <point x="46" y="356" type="curve" smooth="yes"/>
      <point x="46" y="119"/>
      <point x="142" y="-8"/>
      <point x="321" y="-8" type="curve" smooth="yes"/>
      <point x="500" y="-8"/>
      <point x="596" y="119"/>
      <point x="596" y="356" type="curve" smooth="yes"/>
      <point x="596" y="592"/>
      <point x="502" y="717"/>
      <point x="321" y="717" type="curve" smooth="yes"/>
    </contour>
    <contour>
      <point x="409" y="607"/>
      <point x="452" y="528"/>
      <point x="452" y="356" type="curve" smooth="yes"/>
      <point x="452" y="181"/>
      <point x="409" y="102"/>
      <point x="321" y="102" type="curve" smooth="yes"/>
      <point x="233" y="102"/>
      <point x="190" y="182"/>
      <point x="190" y="356" type="curve" smooth="yes"/>
      <point x="190" y="528"/>
      <point x="233" y="607"/>
      <point x="321" y="607" type="curve" smooth="yes"/>
    </contour>
  </outline>
</glyph>
<glyph name="six" format="1">
  <advance width="596"/>
  <unicode hex="0036"/>
  <outline>
    <contour>
      <point x="294" y="437"/>
      <point x="236" y="415"/>
      <point x="190" y="375" type="curve"/>
      <point x="220" y="515"/>
      <point x="323" y="591"/>
      <point x="508" y="603" type="curve"/>
      <point x="493" y="715" type="line"/>
      <point x="211" y="699"/>
      <point x="37" y="534"/>
      <point x="37" y="281" type="curve" smooth="yes"/>
      <point x="37" y="99"/>
      <point x="138" y="-8"/>
      <point x="304" y="-8" type="curve" smooth="yes"/>
      <point x="462" y="-8"/>
      <point x="567" y="83"/>
      <point x="567" y="222" type="curve" smooth="yes"/>
      <point x="567" y="347"/>
      <point x="478" y="437"/>
      <point x="354" y="437" type="curve" smooth="yes"/>
    </contour>
    <contour>
      <point x="225" y="101"/>
      <point x="181" y="162"/>
      <point x="181" y="282" type="curve" smooth="yes"/>
      <point x="181" y="289" type="line"/>
      <point x="220" y="321"/>
      <point x="265" y="339"/>
      <point x="308" y="339" type="curve" smooth="yes"/>
      <point x="381" y="339"/>
      <point x="423" y="297"/>
      <point x="423" y="223" type="curve" smooth="yes"/>
      <point x="423" y="152"/>
      <point x="373" y="101"/>
      <point x="304" y="101" type="curve" smooth="yes"/>
    </contour>
  </outline>
</glyph>
<glyph name="colon" format="1">
  <advance width="245"/>
  <unicode hex="003A"/>
  <outline>
    <contour>
      <point x="200" y="489" type="line"/>
      <point x="46" y="489" type="line"/>
      <point x="46" y="340" type="line"/>
      <point x="200" y="340" type="line"/>
    </contour>
    <contour>
      <point x="200" y="161" type="line"/>
      <point x="46" y="161" type="line"/>
      <point x="46" y="11" type="line"/>
      <point x="200" y="11" type="line"/>
    </contour>
  </outline>
</glyph>
<glyph name="E" format="1">
  <advance width="587"/>
  <unicode hex="0045"/>
  <outline>
    <contour>
      <point x="543" y="709" type="line"/>
      <point x="81" y="709" type="line"/>
      <point x="81" y="0" type="line"/>
      <point x="553" y="0" type="line"/>
      <point x="553" y="113" type="line"/>
      <point x="234" y="113" type="line"/>
      <point x="234" y="310" type="line"/>
      <point x="513" y="310" type="line"/>
      <point x="513" y="421" type="line"/>
      <point x="234" y="421" type="line"/>
      <point x="234" y="596" type="line"/>
      <point x="543" y="596" type="line"/>
    </contour>
  </outline>
</glyph>
<glyph name="H" format="1">
  <advance width="761"/>
  <unicode hex="0048"/>
  <outline>
    <contour>
      <point x="234" y="709" type="line"/>
      <point x="81" y="709" type="line"/>
      <point x="81" y="0" type="line"/>
      <point x="234" y="0" type="line"/>
      <point x="234" y="303" type="line"/>
      <point x="527" y="303" type="line"/>
      <point x="527" y="0" type="line"/>
      <point x="680" y="0" type="line"/>
      <point x="680" y="709" type="line"/>
      <point x="527" y="709" type="line"/>
      <point x="527" y="419" type="line"/>
      <point x="234" y="419" type="line"/>
    </contour>
  </outline>
</glyph>
<glyph name="P" format="1">
  <advance width="612"/>
  <unicode hex="0050"/>
  <outline>
    <contour>
      <point x="81" y="709" type="line"/>
      <point x="81" y="0" type="line"/>
      <point x="232" y="0" type="line"/>
      <point x="232" y="261" type="line"/>
      <point x="327" y="261" type="line" smooth="yes"/>
      <point x="494" y="261"/>
      <point x="592" y="343"/>
      <point x="592" y="485" type="curve" smooth="yes"/>
      <point x="592" y="630"/>
      <point x="497" y="709"/>
      <point x="324" y="709" type="curve" smooth="yes"/>
    </contour>
    <contour>
      <point x="232" y="373" type="line"/>
      <point x="232" y="596" type="line"/>
      <point x="318" y="596" type="line" smooth="yes"/>
      <point x="402" y="596"/>
      <point x="441" y="561"/>
      <point x="441" y="485" type="curve" smooth="yes"/>
      <point x="441" y="409"/>
      <point x="401" y="373"/>
      <point x="318" y="373" type="curve" smooth="yes"/>
    </contour>
  </outline>
</glyph>
<glyph name="V" format="1">
  <advance width="676"/>
  <unicode hex="0056"/>
  <outline>
    <contour>
      <point x="670" y="709" type="line"/>
      <point x="514" y="709" type="line"/>
      <point x="404" y="376" type="line" smooth="yes"/>
      <point x="379" y="299"/>
      <point x="358" y="215"/>
      <point x="338" y="132" type="curve"/>
      <point x="317" y="215"/>
      <point x="296" y="301"/>
      <point x="271" y="376" type="curve" smooth="yes"/>
      <point x="162" y="709" type="line"/>
      <point x="6" y="709" type="line"/>
      <point x="244" y="0" type="line"/>
      <point x="432" y="0" type="line"/>
    </contour>
  </outline>
</glyph>
<glyph name="backslash" format="1">
  <advance width="371"/>
  <unicode hex="005C"/>
  <outline>
    <contour>
      <point x="375" y="-71" type="line"/>
      <point x="112" y="752" type="line"/>
      <point x="-5" y="752" type="line"/>
      <point x="258" y="-71" type="line"/>
    </contour>
  </outline>
</glyph>
<glyph name="asciicircum" format="1">
  <advance width="546"/>
  <unicode hex="005E"/>
  <outline>
    <contour>
      <point x="330" y="711" type="line"/>
      <point x="216" y="711" type="line"/>
      <point x="-1" y="351" type="line"/>
      <point x="116" y="351" type="line"/>
      <point x="273" y="619" type="line"/>
      <point x="429" y="352" type="line"/>
      <point x="547" y="352" type="line"/>
    </contour>
  </outline>
</glyph>
<glyph name="grave" format="1">
  <advance width="293"/>
  <unicode hex="0060"/>
  <outline>
    <contour>
      <point x="257" y="620" type="line"/>
      <point x="101" y="781" type="line"/>
      <point x="36" y="695" type="line"/>
      <point x="216" y="570" type="line"/>
    </contour>
  </outline>
</glyph>
<glyph name="j" format="1">
  <advance width="293"/>
  <unicode hex="006A"/>
  <outline>
    <contour>
      <point x="224" y="735" type="line"/>
      <point x="74" y="735" type="line"/>
      <point x="74" y="598" type="line"/>
      <point x="224" y="598" type="line"/>
    </contour>
    <contour>
      <point x="47" y="-197" type="line"/>
      <point x="162" y="-108"/>
      <point x="224" y="-7"/>
      <point x="224" y="99" type="curve" smooth="yes"/>
      <point x="224" y="521" type="line"/>
      <point x="74" y="521" type="line"/>
      <point x="74" y="99" type="line" smooth="yes"/>
      <point x="74" y="24"/>
      <point x="42" y="-52"/>
      <point x="-29" y="-140" type="curve"/>
    </contour>
  </outline>
</glyph>
<glyph name="t" format="1">
  <advance width="417"/>
  <unicode hex="0074"/>
  <outline>
    <contour>
      <point x="376" y="116" type="line"/>
      <point x="353" y="108"/>
      <point x="331" y="104"/>
      <point x="310" y="104" type="curve" smooth="yes"/>
      <point x="262" y="104"/>
      <point x="244" y="125"/>
      <point x="244" y="178" type="curve" smooth="yes"/>
      <point x="244" y="419" type="line"/>
      <point x="387" y="419" type="line"/>
      <point x="387" y="524" type="line"/>
      <point x="244" y="524" type="line"/>
      <point x="244" y="674" type="line"/>
      <point x="134" y="674" type="line"/>
      <point x="105" y="524" type="line"/>
      <point x="9" y="524" type="line"/>
      <point x="9" y="419" type="line"/>
      <point x="95" y="419" type="line"/>
      <point x="95" y="157" type="line" smooth="yes"/>
      <point x="95" y="48"/>
      <point x="153" y="-8"/>
      <point x="268" y="-8" type="curve" smooth="yes"/>
      <point x="314" y="-8"/>
      <point x="354" y="2"/>
      <point x="398" y="20" type="curve"/>
    </contour>
  </outline>
</glyph>
<glyph name="v" format="1">
  <advance width="543"/>
  <unicode hex="0076"/>
  <outline>
    <contour>
      <point x="540" y="524" type="line"/>
      <point x="394" y="524" type="line"/>
      <point x="317" y="295" type="line" smooth="yes"/>
      <point x="299" y="237"/>
      <point x="287" y="182"/>
      <point x="273" y="127" type="curve"/>
      <point x="259" y="182"/>
      <point x="246" y="237"/>
      <point x="228" y="294" type="curve" smooth="yes"/>
      <point x="151" y="524" type="line"/>
      <point x="3" y="524" type="line"/>
      <point x="183" y="0" type="line"/>
      <point x="360" y="0" type="line"/>
    </contour>
  </outline>
</glyph>
<glyph name="z" format="1">
  <advance width="473"/>
  <unicode hex="007A"/>
  <outline>
    <contour>
      <point x="271" y="413" type="line"/>
      <point x="28" y="93" type="line"/>
      <point x="28" y="0" type="line"/>
      <point x="447" y="0" type="line"/>
      <point x="447" y="111" type="line"/>
      <point x="195" y="111" type="line"/>
      <point x="438" y="434" type="line"/>
      <point x="438" y="524" type="line"/>
      <point x="39" y="524" type="line"/>
      <point x="39" y="413" type="line"/>
    </contour>
  </outline>
</glyph>
<glyph name="braceright" format="1">
  <advance width="344"/>
  <unicode hex="007D"/>
  <outline>
    <contour>
      <point x="11" y="-96" type="line"/>
      <point x="11" y="-193" type="line"/>
      <point x="63" y="-193" type="line" smooth="yes"/>
      <point x="201" y="-193"/>
      <point x="255" y="-137"/>
      <point x="255" y="6" type="curve" smooth="yes"/>
      <point x="255" y="119" type="line" smooth="yes"/>
      <point x="255" y="188"/>
      <point x="287" y="243"/>
      <point x="337" y="259" type="curve"/>
      <point x="337" y="334" type="line"/>
      <point x="283" y="353"/>
      <point x="255" y="398"/>
      <point x="255" y="470" type="curve" smooth="yes"/>
      <point x="255" y="575" type="line" smooth="yes"/>
      <point x="255" y="714"/>
      <point x="197" y="774"/>
      <point x="60" y="774" type="curve" smooth="yes"/>
      <point x="11" y="774" type="line"/>
      <point x="11" y="677" type="line"/>
      <point x="57" y="677" type="line" smooth="yes"/>
      <point x="115" y="677"/>
      <point x="140" y="651"/>
      <point x="140" y="589" type="curve" smooth="yes"/>
      <point x="140" y="440" type="line" smooth="yes"/>
      <point x="140" y="384"/>
      <point x="167" y="338"/>
      <point x="220" y="299" type="curve"/>
      <point x="220" y="289" type="line"/>
      <point x="166" y="247"/>
      <point x="140" y="203"/>
      <point x="140" y="150" type="curve" smooth="yes"/>
      <point x="140" y="-7" type="line" smooth="yes"/>
      <point x="140" y="-70"/>
      <point x="115" y="-96"/>
      <point x="57" y="-96" type="curve" smooth="yes"/>
    </contour>
  </outline>
</glyph>
<glyph name="sterling" format="1">
  <advance width="555"/>
  <unicode hex="00A3"/>
  <outline>
    <contour>
      <point x="422" y="305" type="line"/>
      <point x="422" y="399" type="line"/>
      <point x="265" y="399" type="line"/>
      <point x="254" y="446"/>
      <point x="237" y="479"/>
      <point x="237" y="522" type="curve" smooth="yes"/>
      <point x="237" y="581"/>
      <point x="276" y="617"/>
      <point x="341" y="617" type="curve" smooth="yes"/>
      <point x="388" y="617"/>
      <point x="421" y="598"/>
      <point x="433" y="564" type="curve"/>
      <point x="538" y="608" type="line"/>
      <point x="513" y="681"/>
      <point x="437" y="724"/>
      <point x="336" y="724" type="curve" smooth="yes"/>
      <point x="186" y="724"/>
      <point x="91" y="647"/>
      <point x="91" y="527" type="curve" smooth="yes"/>
      <point x="91" y="475"/>
      <point x="106" y="441"/>
      <point x="117" y="399" type="curve"/>
      <point x="35" y="399" type="line"/>
      <point x="35" y="305" type="line"/>
      <point x="129" y="305" type="line"/>
      <point x="129" y="222"/>
      <point x="99" y="146"/>
      <point x="43" y="88" type="curve"/>
      <point x="43" y="0" type="line"/>
      <point x="530" y="0" type="line"/>
      <point x="530" y="109" type="line"/>
      <point x="177" y="102" type="line"/>
      <point x="231" y="147"/>
      <point x="272" y="230"/>
      <point x="275" y="305" type="curve"/>
    </contour>
  </outline>
</glyph>
<glyph name="yen" format="1">
  <advance width="633"/>
  <unicode hex="00A5"/>
  <outline>
    <contour>
      <point x="429" y="360" type="line"/>
      <point x="624" y="709" type="line"/>
      <point x="460" y="709" type="line"/>
      <point x="317" y="410" type="line"/>
      <point x="174" y="709" type="line"/>
      <point x="9" y="709" type="line"/>
      <point x="204" y="360" type="line"/>
      <point x="71" y="360" type="line"/>
      <point x="71" y="285" type="line"/>
      <point x="240" y="285" type="line"/>
      <point x="240" y="201" type="line"/>
      <point x="71" y="201" type="line"/>
      <point x="71" y="126" type="line"/>
      <point x="240" y="126" type="line"/>
      <point x="240" y="0" type="line"/>
      <point x="393" y="0" type="line"/>
      <point x="393" y="126" type="line"/>
      <point x="562" y="126" type="line"/>
      <point x="562" y="201" type="line"/>
      <point x="393" y="201" type="line"/>
      <point x="393" y="285" type="line"/>
      <point x="562" y="285" type="line"/>
      <point x="562" y="360" type="line"/>
    </contour>
  </outline>
</glyph>
<glyph name="onequarter" format="1">
  <advance width="840"/>
  <unicode hex="00BC"/>
  <outline>
    <contour>
      <point x="538" y="748" type="line"/>
      <point x="106" y="-1" type="line"/>
      <point x="183" y="-46" type="line"/>
      <point x="616" y="704" type="line"/>
    </contour>
    <contour>
      <point x="19" y="591" type="line"/>
      <point x="119" y="615" type="line"/>
      <point x="119" y="261" type="line"/>
      <point x="230" y="261" type="line"/>
      <point x="230" y="700" type="line"/>
      <point x="163" y="710" type="line"/>
      <point x="3" y="650" type="line"/>
    </contour>
    <contour>
      <point x="778" y="165" type="line"/>
      <point x="778" y="445" type="line"/>
      <point x="626" y="445" type="line"/>
      <point x="457" y="148" type="line"/>
      <point x="466" y="91" type="line"/>
      <point x="682" y="91" type="line"/>
      <point x="682" y="0" type="line"/>
      <point x="778" y="0" type="line"/>
      <point x="778" y="91" type="line"/>
      <point x="820" y="91" type="line"/>
      <point x="831" y="165" type="line"/>
    </contour>
    <contour>
      <point x="565" y="165" type="line"/>
      <point x="682" y="373" type="line"/>
      <point x="682" y="165" type="line"/>
    </contour>
  </outline>
</glyph>
<glyph name="onehalf" format="1">
  <advance width="789"/>
  <unicode hex="00BD"/>
  <outline>
    <contour>
      <point x="538" y="748" type="line"/>
      <point x="106" y="-1" type="line"/>
      <point x="183" y="-46" type="line"/>
      <point x="616" y="704" type="line"/>
    </contour>
    <contour>
      <point x="19" y="591" type="line"/>
      <point x="119" y="615" type="line"/>
      <point x="119" y="261" type="line"/>
      <point x="230" y="261" type="line"/>
      <point x="230" y="700" type="line"/>
      <point x="163" y="710" type="line"/>
      <point x="3" y="650" type="line"/>
    </contour>
    <contour>
      <point x="556" y="447"/>
      <point x="508" y="437"/>
      <point x="464" y="420" type="curve"/>
      <point x="479" y="342" type="line"/>
      <point x="509" y="355"/>
      <point x="542" y="363"/>
      <point x="569" y="363" type="curve" smooth="yes"/>
      <point x="617" y="363"/>
      <point x="644" y="340"/>
      <point x="644" y="298" type="curve" smooth="yes"/>
      <point x="644" y="245"/>
      <point x="617" y="200"/>
      <point x="536" y="135" type="curve"/>
      <point x="465" y="71" type="line"/>
      <point x="470" y="0" type="line"/>
      <point x="768" y="0" type="line"/>
      <point x="768" y="92" type="line"/>
      <point x="720" y="85"/>
      <point x="654" y="78"/>
      <point x="598" y="77" type="curve"/>
      <point x="653" y="125" type="line" smooth="yes"/>
      <point x="735" y="195"/>
      <point x="759" y="242"/>
      <point x="759" y="306" type="curve" smooth="yes"/>
      <point x="759" y="392"/>
      <point x="697" y="447"/>
      <point x="600" y="447" type="curve" smooth="yes"/>
    </contour>
  </outline>
</glyph>
<glyph name="Aacute" format="1">
  <advance width="681"/>
  <unicode hex="00C1"/>
  <outline>
    <contour>
      <point x="427" y="965" type="line"/>
      <point x="271" y="804" type="line"/>
      <point x="312" y="754" type="line"/>
      <point x="492" y="879" type="line"/>
    </contour>
    <contour>
      <point x="675" y="0" type="line"/>
      <point x="439" y="709" type="line"/>
      <point x="237" y="709" type="line"/>
      <point x="7" y="0" type="line"/>
      <point x="157" y="0" type="line"/>
      <point x="215" y="182" type="line"/>
      <point x="467" y="182" type="line"/>
      <point x="527" y="0" type="line"/>
    </contour>
    <contour>
      <point x="249" y="295" type="line"/>
      <point x="336" y="578" type="line"/>
      <point x="343" y="578" type="line"/>
      <point x="432" y="295" type="line"/>
    </contour>
  </outline>
</glyph>
<glyph name="Idieresis" format="1">
  <advance width="314"/>
  <unicode hex="00CF"/>
  <outline>
    <contour>
      <point x="116" y="901" type="line"/>
      <point x="-6" y="901" type="line"/>
      <point x="-6" y="783" type="line"/>
      <point x="116" y="783" type="line"/>
    </contour>
    <contour>
      <point x="322" y="901" type="line"/>
      <point x="201" y="901" type="line"/>
      <point x="201" y="783" type="line"/>
      <point x="322" y="783" type="line"/>
    </contour>
    <contour>
      <point x="234" y="709" type="line"/>
      <point x="81" y="709" type="line"/>
      <point x="81" y="0" type="line"/>
      <point x="234" y="0" type="line"/>
    </contour>
  </outline>
</glyph>
<glyph name="Ntilde" format="1">
  <advance width="752"/>
  <unicode hex="00D1"/>
  <outline>
    <contour>
      <point x="356" y="842"/>
      <point x="376" y="774"/>
      <point x="453" y="774" type="curve" smooth="yes"/>
      <point x="528" y="774"/>
      <point x="577" y="830"/>
      <point x="577" y="916" type="curve"/>
      <point x="493" y="916" type="line"/>
      <point x="493" y="882"/>
      <point x="477" y="860"/>
      <point x="452" y="860" type="curve" smooth="yes"/>
      <point x="396" y="860"/>
      <point x="388" y="927"/>
      <point x="306" y="927" type="curve" smooth="yes"/>
      <point x="228" y="927"/>
      <point x="179" y="873"/>
      <point x="179" y="785" type="curve"/>
      <point x="264" y="785" type="line"/>
      <point x="264" y="821"/>
      <point x="282" y="842"/>
      <point x="310" y="842" type="curve" smooth="yes"/>
    </contour>
    <contour>
      <point x="672" y="709" type="line"/>
      <point x="532" y="709" type="line"/>
      <point x="532" y="221" type="line"/>
      <point x="496" y="281"/>
      <point x="456" y="347"/>
      <point x="418" y="401" type="curve" smooth="yes"/>
      <point x="202" y="709" type="line"/>
      <point x="81" y="709" type="line"/>
      <point x="81" y="0" type="line"/>
      <point x="220" y="0" type="line"/>
      <point x="220" y="491" type="line"/>
      <point x="255" y="432"/>
      <point x="294" y="366"/>
      <point x="330" y="314" type="curve" smooth="yes"/>
      <point x="550" y="0" type="line"/>
      <point x="672" y="0" type="line"/>
    </contour>
  </outline>
</glyph>
<glyph name="Thorn" format="1">
  <advance width="611"/>
  <unicode hex="00DE"/>
  <outline>
    <contour>
      <point x="234" y="709" type="line"/>
      <point x="82" y="709" type="line"/>
      <point x="82" y="0" type="line"/>
      <point x="234" y="0" type="line"/>
      <point x="234" y="125" type="line"/>
      <point x="329" y="125" type="line" smooth="yes"/>
      <point x="495" y="125"/>
      <point x="593" y="208"/>
      <point x="593" y="350" type="curve" smooth="yes"/>
      <point x="593" y="495"/>
      <point x="499" y="573"/>
      <point x="326" y="573" type="curve" smooth="yes"/>
      <point x="234" y="573" type="line"/>
    </contour>
    <contour>
      <point x="234" y="238" type="line"/>
      <point x="234" y="461" type="line"/>
      <point x="320" y="461" type="line" smooth="yes"/>
      <point x="404" y="461"/>
      <point x="442" y="426"/>
      <point x="442" y="349" type="curve" smooth="yes"/>
      <point x="442" y="274"/>
      <point x="403" y="238"/>
      <point x="320" y="238" type="curve" smooth="yes"/>
    </contour>
  </outline>
</glyph>
<glyph name="germandbls" format="1">
  <advance width="615"/>
  <unicode hex="00DF"/>
  <outline>
    <contour>
      <point x="74" y="0" type="line"/>
      <point x="220" y="0" type="line"/>
      <point x="220" y="545" type="line" smooth="yes"/>
      <point x="220" y="596"/>
      <point x="250" y="624"/>
      <point x="306" y="624" type="curve" smooth="yes"/>
      <point x="356" y="624"/>
      <point x="383" y="602"/>
      <point x="383" y="558" type="curve" smooth="yes"/>
      <point x="383" y="477"/>
      <point x="289" y="464"/>
      <point x="289" y="374" type="curve" smooth="yes"/>
      <point x="289" y="241"/>
      <point x="449" y="279"/>
      <point x="449" y="180" type="curve" smooth="yes"/>
      <point x="449" y="129"/>
      <point x="418" y="104"/>
      <point x="355" y="104" type="curve" smooth="yes"/>
      <point x="276" y="104" type="line"/>
      <point x="276" y="0" type="line"/>
      <point x="384" y="0" type="line" smooth="yes"/>
      <point x="520" y="0"/>
      <point x="596" y="62"/>
      <point x="596" y="174" type="curve" smooth="yes"/>
      <point x="596" y="333"/>
      <point x="430" y="322"/>
      <point x="430" y="385" type="curve" smooth="yes"/>
      <point x="430" y="445"/>
      <point x="530" y="464"/>
      <point x="530" y="568" type="curve" smooth="yes"/>
      <point x="530" y="668"/>
      <point x="442" y="733"/>
      <point x="310" y="733" type="curve" smooth="yes"/>
      <point x="160" y="733"/>
      <point x="74" y="665"/>
      <point x="74" y="547" type="curve" smooth="yes"/>
    </contour>
  </outline>
</glyph>
<glyph name="iacute" format="1">
  <advance width="295"/>
  <unicode hex="00ED"/>
  <outline>
    <contour>
      <point x="237" y="781" type="line"/>
      <point x="81" y="620" type="line"/>
      <point x="122" y="570" type="line"/>
      <point x="302" y="695" type="line"/>
    </contour>
    <contour>
      <point x="222" y="517" type="line"/>
      <point x="73" y="517" type="line"/>
      <point x="73" y="0" type="line"/>
      <point x="222" y="0" type="line"/>
    </contour>
  </outline>
</glyph>
<glyph name="icircumflex" format="1">
  <advance width="295"/>
  <unicode hex="00EE"/>
  <outline>
    <contour>
      <point x="320" y="617" type="line"/>
      <point x="164" y="758" type="line"/>
      <point x="133" y="758" type="line"/>
      <point x="-23" y="617" type="line"/>
      <point x="18" y="567" type="line"/>
      <point x="148" y="654" type="line"/>
      <point x="279" y="567" type="line"/>
    </contour>
    <contour>
      <point x="222" y="517" type="line"/>
      <point x="73" y="517" type="line"/>
      <point x="73" y="0" type="line"/>
      <point x="222" y="0" type="line"/>
    </contour>
  </outline>
</glyph>
<glyph name="oacute" format="1">
  <advance width="598"/>
  <unicode hex="00F3"/>
  <outline>
    <contour>
      <point x="387" y="781" type="line"/>
      <point x="231" y="620" type="line"/>
      <point x="272" y="570" type="line"/>
      <point x="452" y="695" type="line"/>
    </contour>
    <contour>
      <point x="127" y="536"/>
      <point x="32" y="439"/>
      <point x="32" y="263" type="curve" smooth="yes"/>
      <point x="32" y="87"/>
      <point x="128" y="-11"/>
      <point x="299" y="-11" type="curve" smooth="yes"/>
      <point x="470" y="-11"/>
      <point x="566" y="86"/>
      <point x="566" y="263" type="curve" smooth="yes"/>
      <point x="566" y="439"/>
      <point x="471" y="536"/>
      <point x="299" y="536" type="curve" smooth="yes"/>
    </contour>
    <contour>
      <point x="376" y="424"/>
      <point x="415" y="370"/>
      <point x="415" y="263" type="curve" smooth="yes"/>
      <point x="415" y="155"/>
      <point x="376" y="102"/>
      <point x="299" y="102" type="curve" smooth="yes"/>
      <point x="222" y="102"/>
      <point x="183" y="155"/>
      <point x="183" y="263" type="curve" smooth="yes"/>
      <point x="183" y="370"/>
      <point x="222" y="424"/>
      <point x="299" y="424" type="curve" smooth="yes"/>
    </contour>
  </outline>
</glyph>
<glyph name="Aogonek" format="1">
  <advance width="675"/>
  <unicode hex="0104"/>
  <outline>
    <contour>
      <point x="426" y="-195"/>
      <point x="473" y="-225"/>
      <point x="528" y="-225" type="curve" smooth="yes"/>
      <point x="574" y="-225"/>
      <point x="608" y="-214"/>
      <point x="649" y="-192" type="curve"/>
      <point x="631" y="-141" type="line"/>
      <point x="616" y="-148"/>
      <point x="598" y="-152"/>
      <point x="583" y="-152" type="curve" smooth="yes"/>
      <point x="560" y="-152"/>
      <point x="542" y="-139"/>
      <point x="542" y="-111" type="curve" smooth="yes"/>
      <point x="542" y="-66"/>
      <point x="579" y="-30"/>
      <point x="642" y="0" type="curve"/>
      <point x="672" y="0" type="line"/>
      <point x="435" y="709" type="line"/>
      <point x="234" y="709" type="line"/>
      <point x="4" y="0" type="line"/>
      <point x="154" y="0" type="line"/>
      <point x="211" y="182" type="line"/>
      <point x="465" y="182" type="line"/>
      <point x="524" y="0" type="line"/>
      <point x="470" y="-22"/>
      <point x="426" y="-77"/>
      <point x="426" y="-131" type="curve" smooth="yes"/>
    </contour>
    <contour>
      <point x="336" y="591" type="line"/>
      <point x="431" y="295" type="line"/>
      <point x="243" y="295" type="line"/>
    </contour>
  </outline>
</glyph>
<glyph name="dcroat" format="1">
  <advance width="622"/>
  <unicode hex="0111"/>
  <outline>
    <contour>
      <point x="549" y="676" type="line"/>
      <point x="549" y="752" type="line"/>
      <point x="399" y="752" type="line"/>
      <point x="399" y="676" type="line"/>
      <point x="278" y="676" type="line"/>
      <point x="278" y="580" type="line"/>
      <point x="399" y="580" type="line"/>
      <point x="399" y="512" type="line"/>
      <point x="361" y="520"/>
      <point x="338" y="523"/>
      <point x="311" y="523" type="curve" smooth="yes"/>
      <point x="138" y="523"/>
      <point x="31" y="420"/>
      <point x="31" y="247" type="curve" smooth="yes"/>
      <point x="31" y="85"/>
      <point x="115" y="-7"/>
      <point x="258" y="-7" type="curve" smooth="yes"/>
      <point x="319" y="-7"/>
      <point x="367" y="14"/>
      <point x="412" y="63" type="curve"/>
      <point x="434" y="1" type="line"/>
      <point x="549" y="1" type="line"/>
      <point x="549" y="580" type="line"/>
      <point x="611" y="580" type="line"/>
      <point x="611" y="676" type="line"/>
    </contour>
    <contour>
      <point x="346" y="421"/>
      <point x="359" y="419"/>
      <point x="399" y="410" type="curve"/>
      <point x="399" y="183" type="line"/>
      <point x="382" y="131"/>
      <point x="341" y="99"/>
      <point x="288" y="99" type="curve" smooth="yes"/>
      <point x="221" y="99"/>
      <point x="182" y="146"/>
      <point x="182" y="252" type="curve" smooth="yes"/>
      <point x="182" y="364"/>
      <point x="232" y="421"/>
      <point x="319" y="421" type="curve" smooth="yes"/>
    </contour>
  </outline>
</glyph>
<glyph name="Emacron" format="1">
  <advance width="587"/>
  <unicode hex="0112"/>
  <outline>
    <contour>
      <point x="483" y="886" type="line"/>
      <point x="153" y="886" type="line"/>
      <point x="153" y="793" type="line"/>
      <point x="483" y="793" type="line"/>
    </contour>
    <contour>
      <point x="543" y="709" type="line"/>
      <point x="81" y="709" type="line"/>
      <point x="81" y="0" type="line"/>
      <point x="553" y="0" type="line"/>
      <point x="553" y="113" type="line"/>
      <point x="234" y="113" type="line"/>
      <point x="234" y="310" type="line"/>
      <point x="513" y="310" type="line"/>
      <point x="513" y="421" type="line"/>
      <point x="234" y="421" type="line"/>
      <point x="234" y="596" type="line"/>
      <point x="543" y="596" type="line"/>
    </contour>
  </outline>
</glyph>
<glyph name="gbreve" format="1">
  <advance width="626"/>
  <unicode hex="011F"/>
  <outline>
    <contour>
      <point x="379" y="718" type="line"/>
      <point x="379" y="679"/>
      <point x="350" y="652"/>
      <point x="306" y="652" type="curve" smooth="yes"/>
      <point x="261" y="652"/>
      <point x="234" y="677"/>
      <point x="234" y="718" type="curve"/>
      <point x="149" y="718" type="line"/>
      <point x="149" y="630"/>
      <point x="210" y="573"/>
      <point x="306" y="573" type="curve" smooth="yes"/>
      <point x="402" y="573"/>
      <point x="464" y="630"/>
      <point x="464" y="718" type="curve"/>
    </contour>
    <contour>
      <point x="130" y="529"/>
      <point x="32" y="426"/>
      <point x="32" y="254" type="curve" smooth="yes"/>
      <point x="32" y="92"/>
      <point x="117" y="-1"/>
      <point x="262" y="-1" type="curve" smooth="yes"/>
      <point x="317" y="-1"/>
      <point x="363" y="17"/>
      <point x="404" y="56" type="curve"/>
      <point x="404" y="1" type="line" smooth="yes"/>
      <point x="404" y="-82"/>
      <point x="356" y="-124"/>
      <point x="274" y="-123" type="curve" smooth="yes"/>
      <point x="215" y="-123"/>
      <point x="141" y="-101"/>
      <point x="97" y="-77" type="curve"/>
      <point x="51" y="-175" type="line"/>
      <point x="116" y="-211"/>
      <point x="202" y="-231"/>
      <point x="286" y="-231" type="curve" smooth="yes"/>
      <point x="447" y="-231"/>
      <point x="554" y="-151"/>
      <point x="554" y="9" type="curve" smooth="yes"/>
      <point x="554" y="524" type="line"/>
      <point x="433" y="524" type="line"/>
      <point x="418" y="488" type="line"/>
      <point x="386" y="514"/>
      <point x="341" y="529"/>
      <point x="292" y="529" type="curve" smooth="yes"/>
    </contour>
    <contour>
      <point x="349" y="429"/>
      <point x="380" y="421"/>
      <point x="404" y="407" type="curve"/>
      <point x="404" y="190" type="line"/>
      <point x="389" y="138"/>
      <point x="346" y="105"/>
      <point x="293" y="105" type="curve" smooth="yes"/>
      <point x="222" y="105"/>
      <point x="184" y="160"/>
      <point x="184" y="259" type="curve" smooth="yes"/>
      <point x="184" y="370"/>
      <point x="233" y="429"/>
      <point x="320" y="429" type="curve" smooth="yes"/>
    </contour>
  </outline>
</glyph>
<glyph name="uni0122" format="1">
  <advance width="674"/>
  <unicode hex="0122"/>
  <outline>
    <contour>
      <point x="627" y="360" type="line"/>
      <point x="485" y="360" type="line"/>
      <point x="485" y="126" type="line"/>
      <point x="453" y="117"/>
      <point x="423" y="113"/>
      <point x="391" y="113" type="curve" smooth="yes"/>
      <point x="265" y="113"/>
      <point x="194" y="202"/>
      <point x="194" y="357" type="curve" smooth="yes"/>
      <point x="194" y="513"/>
      <point x="269" y="595"/>
      <point x="413" y="595" type="curve" smooth="yes"/>
      <point x="464" y="595"/>
      <point x="511" y="583"/>
      <point x="578" y="555" type="curve"/>
      <point x="623" y="663" type="line"/>
      <point x="559" y="698"/>
      <point x="475" y="718"/>
      <point x="395" y="718" type="curve" smooth="yes"/>
      <point x="167" y="718"/>
      <point x="37" y="586"/>
      <point x="37" y="354" type="curve" smooth="yes"/>
      <point x="37" y="123"/>
      <point x="163" y="-8"/>
      <point x="383" y="-8" type="curve" smooth="yes"/>
      <point x="464" y="-8"/>
      <point x="553" y="11"/>
      <point x="627" y="44" type="curve"/>
    </contour>
    <contour>
      <point x="364" y="-220" type="line"/>
      <point x="408" y="-152"/>
      <point x="425" y="-109"/>
      <point x="433" y="-45" type="curve"/>
      <point x="315" y="-45" type="line"/>
      <point x="314" y="-107"/>
      <point x="305" y="-158"/>
      <point x="282" y="-220" type="curve"/>
    </contour>
  </outline>
</glyph>
<glyph name="Hcircumflex" format="1">
  <advance width="761"/>
  <unicode hex="0124"/>
  <outline>
    <contour>
      <point x="551" y="801" type="line"/>
      <point x="395" y="942" type="line"/>
      <point x="364" y="942" type="line"/>
      <point x="208" y="801" type="line"/>
      <point x="249" y="751" type="line"/>
      <point x="379" y="838" type="line"/>
      <point x="510" y="751" type="line"/>
    </contour>
    <contour>
      <point x="234" y="709" type="line"/>
      <point x="81" y="709" type="line"/>
      <point x="81" y="0" type="line"/>
      <point x="234" y="0" type="line"/>
      <point x="234" y="303" type="line"/>
      <point x="527" y="303" type="line"/>
      <point x="527" y="0" type="line"/>
      <point x="680" y="0" type="line"/>
      <point x="680" y="709" type="line"/>
      <point x="527" y="709" type="line"/>
      <point x="527" y="419" type="line"/>
      <point x="234" y="419" type="line"/>
    </contour>
  </outline>
</glyph>
<glyph name="Imacron" format="1">
  <advance width="314"/>
  <unicode hex="012A"/>
  <outline>
    <contour>
      <point x="324" y="886" type="line"/>
      <point x="-6" y="886" type="line"/>
      <point x="-6" y="793" type="line"/>
      <point x="324" y="793" type="line"/>
    </contour>
    <contour>
      <point x="234" y="709" type="line"/>
      <point x="81" y="709" type="line"/>
      <point x="81" y="0" type="line"/>
      <point x="234" y="0" type="line"/>
    </contour>
  </outline>
</glyph>
<glyph name="Jcircumflex" format="1">
  <advance width="373"/>
  <unicode hex="0134"/>
  <outline>
    <contour>
      <point x="342" y="801" type="line"/>
      <point x="186" y="942" type="line"/>
      <point x="155" y="942" type="line"/>
      <point x="-1" y="801" type="line"/>
      <point x="40" y="751" type="line"/>
      <point x="170" y="838" type="line"/>
      <point x="301" y="751" type="line"/>
    </contour>
    <contour>
      <point x="40" y="-155" type="line"/>
      <point x="202" y="-94"/>
      <point x="296" y="17"/>
      <point x="296" y="141" type="curve" smooth="yes"/>
      <point x="296" y="709" type="line"/>
      <point x="9" y="709" type="line"/>
      <point x="9" y="596" type="line"/>
      <point x="145" y="596" type="line"/>
      <point x="145" y="143" type="line" smooth="yes"/>
      <point x="145" y="57"/>
      <point x="92" y="-11"/>
      <point x="-10" y="-64" type="curve"/>
    </contour>
  </outline>
</glyph>
<glyph name="uni0137" format="1">
  <advance width="585"/>
  <unicode hex="0137"/>
  <outline>
    <contour>
      <point x="222" y="755" type="line"/>
      <point x="72" y="755" type="line"/>
      <point x="72" y="0" type="line"/>
      <point x="222" y="0" type="line"/>
    </contour>
    <contour>
      <point x="398" y="524" type="line"/>
      <point x="232" y="291" type="line"/>
      <point x="421" y="0" type="line"/>
      <point x="588" y="0" type="line"/>
      <point x="388" y="296" type="line"/>
      <point x="557" y="524" type="line"/>
    </contour>
    <contour>
      <point x="261" y="-45" type="line"/>
      <point x="260" y="-107"/>
      <point x="251" y="-158"/>
      <point x="228" y="-220" type="curve"/>
      <point x="310" y="-220" type="line"/>
      <point x="354" y="-152"/>
      <point x="371" y="-109"/>
      <point x="379" y="-45" type="curve"/>
    </contour>
  </outline>
</glyph>
<glyph name="uni013C" format="1">
  <advance width="298"/>
  <unicode hex="013C"/>
  <outline>
    <contour>
      <point x="224" y="752" type="line"/>
      <point x="74" y="752" type="line"/>
      <point x="74" y="0" type="line"/>
      <point x="224" y="0" type="line"/>
    </contour>
    <contour>
      <point x="99" y="-45" type="line"/>
      <point x="98" y="-107"/>
      <point x="89" y="-158"/>
      <point x="66" y="-220" type="curve"/>
      <point x="148" y="-220" type="line"/>
      <point x="192" y="-152"/>
      <point x="209" y="-109"/>
      <point x="217" y="-45" type="curve"/>
    </contour>
  </outline>
</glyph>
<glyph name="Lcaron" format="1">
  <advance width="531"/>
  <unicode hex="013D"/>
  <outline>
    <contour>
      <point x="512" y="701" type="line"/>
      <point x="404" y="717" type="line"/>
      <point x="402" y="511" type="line"/>
      <point x="466" y="504" type="line"/>
    </contour>
    <contour>
      <point x="227" y="709" type="line"/>
      <point x="81" y="709" type="line"/>
      <point x="81" y="0" type="line"/>
      <point x="525" y="0" type="line"/>
      <point x="525" y="116" type="line"/>
      <point x="227" y="116" type="line"/>
    </contour>
  </outline>
</glyph>
<glyph name="Ldot" format="1">
  <advance width="534"/>
  <unicode hex="013F"/>
  <outline>
    <contour>
      <point x="227" y="709" type="line"/>
      <point x="81" y="709" type="line"/>
      <point x="81" y="0" type="line"/>
      <point x="525" y="0" type="line"/>
      <point x="525" y="116" type="line"/>
      <point x="227" y="116" type="line"/>
    </contour>
    <contour>
      <point x="506" y="458" type="line"/>
      <point x="385" y="458" type="line"/>
      <point x="385" y="340" type="line"/>
      <point x="506" y="340" type="line"/>
    </contour>
  </outline>
</glyph>
<glyph name="Lslash" format="1">
  <advance width="526"/>
  <unicode hex="0141"/>
  <outline>
    <contour>
      <point x="523" y="114" type="line"/>
      <point x="229" y="114" type="line"/>
      <point x="229" y="348" type="line"/>
      <point x="406" y="438" type="line"/>
      <point x="406" y="554" type="line"/>
      <point x="229" y="464" type="line"/>
      <point x="229" y="709" type="line"/>
      <point x="82" y="709" type="line"/>
      <point x="82" y="390" type="line"/>
      <point x="14" y="355" type="line"/>
      <point x="14" y="239" type="line"/>
      <point x="82" y="274" type="line"/>
      <point x="82" y="0" type="line"/>
      <point x="523" y="0" type="line"/>
    </contour>
  </outline>
</glyph>
<glyph name="ncaron" format="1">
  <advance width="625"/>
  <unicode hex="0148"/>
  <outline>
    <contour>
      <point x="498" y="715" type="line"/>
      <point x="457" y="765" type="line"/>
      <point x="326" y="678" type="line"/>
      <point x="196" y="765" type="line"/>
      <point x="155" y="715" type="line"/>
      <point x="311" y="574" type="line"/>
      <point x="342" y="574" type="line"/>
    </contour>
    <contour>
      <point x="196" y="524" type="line"/>
      <point x="71" y="524" type="line"/>
      <point x="71" y="0" type="line"/>
      <point x="221" y="0" type="line"/>
      <point x="221" y="366" type="line"/>
      <point x="246" y="404"/>
      <point x="291" y="427"/>
      <point x="339" y="427" type="curve" smooth="yes"/>
      <point x="392" y="427"/>
      <point x="415" y="401"/>
      <point x="415" y="340" type="curve" smooth="yes"/>
      <point x="415" y="0" type="line"/>
      <point x="565" y="0" type="line"/>
      <point x="565" y="348" type="line" smooth="yes"/>
      <point x="565" y="466"/>
      <point x="503" y="532"/>
      <point x="394" y="532" type="curve" smooth="yes"/>
      <point x="319" y="532"/>
      <point x="258" y="505"/>
      <point x="212" y="451" type="curve"/>
    </contour>
  </outline>
</glyph>
<glyph name="rcaron" format="1">
  <advance width="415"/>
  <unicode hex="0159"/>
  <outline>
    <contour>
      <point x="420" y="715" type="line"/>
      <point x="379" y="765" type="line"/>
      <point x="248" y="678" type="line"/>
      <point x="118" y="765" type="line"/>
      <point x="77" y="715" type="line"/>
      <point x="233" y="574" type="line"/>
      <point x="264" y="574" type="line"/>
    </contour>
    <contour>
      <point x="190" y="524" type="line"/>
      <point x="71" y="524" type="line"/>
      <point x="71" y="0" type="line"/>
      <point x="221" y="0" type="line"/>
      <point x="221" y="354" type="line"/>
      <point x="244" y="390"/>
      <point x="275" y="406"/>
      <point x="322" y="406" type="curve" smooth="yes"/>
      <point x="342" y="406"/>
      <point x="368" y="401"/>
      <point x="396" y="391" type="curve"/>
      <point x="413" y="522" type="line"/>
      <point x="385" y="530"/>
      <point x="372" y="532"/>
      <point x="346" y="532" type="curve" smooth="yes"/>
      <point x="285" y="532"/>
      <point x="240" y="504"/>
      <point x="208" y="451" type="curve"/>
    </contour>
  </outline>
</glyph>
<glyph name="Scedilla" format="1">
  <advance width="555"/>
  <unicode hex="015E"/>
  <outline>
    <contour>
      <point x="524" y="322"/>
      <point x="470" y="382"/>
      <point x="325" y="420" type="curve" smooth="yes"/>
      <point x="226" y="446"/>
      <point x="197" y="472"/>
      <point x="197" y="522" type="curve" smooth="yes"/>
      <point x="197" y="569"/>
      <point x="239" y="598"/>
      <point x="308" y="598" type="curve" smooth="yes"/>
      <point x="349" y="598"/>
      <point x="409" y="585"/>
      <point x="474" y="562" type="curve"/>
      <point x="505" y="679" type="line"/>
      <point x="429" y="706"/>
      <point x="368" y="718"/>
      <point x="307" y="718" type="curve" smooth="yes"/>
      <point x="139" y="718"/>
      <point x="42" y="640"/>
      <point x="42" y="506" type="curve" smooth="yes"/>
      <point x="42" y="401"/>
      <point x="98" y="338"/>
      <point x="225" y="307" type="curve" smooth="yes"/>
      <point x="337" y="279"/>
      <point x="368" y="254"/>
      <point x="368" y="201" type="curve" smooth="yes"/>
      <point x="368" y="145"/>
      <point x="326" y="112"/>
      <point x="253" y="112" type="curve" smooth="yes"/>
      <point x="202" y="112"/>
      <point x="151" y="124"/>
      <point x="63" y="155" type="curve"/>
      <point x="27" y="41" type="line"/>
      <point x="110" y="8"/>
      <point x="181" y="-7"/>
      <point x="254" y="-7" type="curve" smooth="yes"/>
      <point x="266" y="-7" type="line"/>
      <point x="229" y="-56" type="line"/>
      <point x="239" y="-82" type="line"/>
      <point x="279" y="-91"/>
      <point x="296" y="-104"/>
      <point x="296" y="-124" type="curve" smooth="yes"/>
      <point x="296" y="-144"/>
      <point x="282" y="-154"/>
      <point x="261" y="-154" type="curve" smooth="yes"/>
      <point x="243" y="-154"/>
      <point x="223" y="-148"/>
      <point x="212" y="-142" type="curve"/>
      <point x="190" y="-189" type="line"/>
      <point x="214" y="-203"/>
      <point x="249" y="-216"/>
      <point x="285" y="-216" type="curve" smooth="yes"/>
      <point x="335" y="-216"/>
      <point x="378" y="-187"/>
      <point x="378" y="-128" type="curve" smooth="yes"/>
      <point x="378" y="-94"/>
      <point x="346" y="-58"/>
      <point x="304" y="-45" type="curve"/>
      <point x="318" y="-3" type="line"/>
      <point x="451" y="14"/>
      <point x="524" y="88"/>
      <point x="524" y="208" type="curve" smooth="yes"/>
    </contour>
  </outline>
</glyph>
<glyph name="tcaron" format="1">
  <advance width="423"/>
  <unicode hex="0165"/>
  <outline>
    <contour>
      <point x="474" y="777" type="line"/>
      <point x="366" y="793" type="line"/>
      <point x="364" y="588" type="line"/>
      <point x="428" y="580" type="line"/>
    </contour>
    <contour>
      <point x="263" y="104"/>
      <point x="244" y="125"/>
      <point x="244" y="178" type="curve" smooth="yes"/>
      <point x="244" y="419" type="line"/>
      <point x="387" y="419" type="line"/>
      <point x="387" y="524" type="line"/>
      <point x="244" y="524" type="line"/>
      <point x="244" y="674" type="line"/>
      <point x="134" y="674" type="line"/>
      <point x="105" y="524" type="line"/>
      <point x="9" y="524" type="line"/>
      <point x="9" y="419" type="line"/>
      <point x="95" y="419" type="line"/>
      <point x="95" y="157" type="line" smooth="yes"/>
      <point x="95" y="48"/>
      <point x="154" y="-8"/>
      <point x="269" y="-8" type="curve" smooth="yes"/>
      <point x="315" y="-8"/>
      <point x="355" y="2"/>
      <point x="398" y="20" type="curve"/>
      <point x="377" y="116" type="line"/>
      <point x="353" y="108"/>
      <point x="332" y="104"/>
      <point x="311" y="104" type="curve" smooth="yes"/>
    </contour>
  </outline>
</glyph>
<glyph name="Tbar" format="1">
  <advance width="549"/>
  <unicode hex="0166"/>
  <outline>
    <contour>
      <point x="355" y="594" type="line"/>
      <point x="546" y="594" type="line"/>
      <point x="546" y="709" type="line"/>
      <point x="2" y="709" type="line"/>
      <point x="2" y="594" type="line"/>
      <point x="202" y="594" type="line"/>
      <point x="202" y="420" type="line"/>
      <point x="77" y="420" type="line"/>
      <point x="77" y="306" type="line"/>
      <point x="202" y="306" type="line"/>
      <point x="202" y="0" type="line"/>
      <point x="355" y="0" type="line"/>
      <point x="355" y="306" type="line"/>
      <point x="477" y="306" type="line"/>
      <point x="477" y="420" type="line"/>
      <point x="355" y="420" type="line"/>
    </contour>
  </outline>
</glyph>
<glyph name="Uring" format="1">
  <advance width="724"/>
  <unicode hex="016E"/>
  <outline>
    <contour>
      <point x="286" y="1022"/>
      <point x="223" y="961"/>
      <point x="223" y="889" type="curve" smooth="yes"/>
      <point x="223" y="817"/>
      <point x="286" y="756"/>
      <point x="362" y="756" type="curve" smooth="yes"/>
      <point x="437" y="756"/>
      <point x="500" y="817"/>
      <point x="500" y="889" type="curve" smooth="yes"/>
      <point x="500" y="961"/>
      <point x="437" y="1022"/>
      <point x="362" y="1022" type="curve" smooth="yes"/>
    </contour>
    <contour>
      <point x="396" y="946"/>
      <point x="419" y="921"/>
      <point x="419" y="889" type="curve" smooth="yes"/>
      <point x="419" y="857"/>
      <point x="395" y="830"/>
      <point x="362" y="830" type="curve" smooth="yes"/>
      <point x="328" y="830"/>
      <point x="303" y="857"/>
      <point x="303" y="889" type="curve" smooth="yes"/>
      <point x="303" y="921"/>
      <point x="327" y="946"/>
      <point x="362" y="946" type="curve" smooth="yes"/>
    </contour>
    <contour>
      <point x="658" y="709" type="line"/>
      <point x="505" y="709" type="line"/>
      <point x="505" y="240" type="line" smooth="yes"/>
      <point x="505" y="154"/>
      <point x="456" y="111"/>
      <point x="362" y="111" type="curve" smooth="yes"/>
      <point x="266" y="111"/>
      <point x="219" y="154"/>
      <point x="219" y="240" type="curve" smooth="yes"/>
      <point x="219" y="709" type="line"/>
      <point x="66" y="709" type="line"/>
      <point x="66" y="242" type="line" smooth="yes"/>
      <point x="66" y="76"/>
      <point x="168" y="-10"/>
      <point x="362" y="-10" type="curve" smooth="yes"/>
      <point x="553" y="-10"/>
      <point x="658" y="78"/>
      <point x="658" y="242" type="curve" smooth="yes"/>
    </contour>
  </outline>
</glyph>
<glyph name="uring" format="1">
  <advance width="628"/>
  <unicode hex="016F"/>
  <outline>
    <contour>
      <point x="234" y="838"/>
      <point x="171" y="777"/>
      <point x="171" y="705" type="curve" smooth="yes"/>
      <point x="171" y="633"/>
      <point x="234" y="572"/>
      <point x="310" y="572" type="curve" smooth="yes"/>
      <point x="385" y="572"/>
      <point x="448" y="633"/>
      <point x="448" y="705" type="curve" smooth="yes"/>
      <point x="448" y="777"/>
      <point x="385" y="838"/>
      <point x="310" y="838" type="curve" smooth="yes"/>
    </contour>
    <contour>
      <point x="344" y="762"/>
      <point x="367" y="737"/>
      <point x="367" y="705" type="curve" smooth="yes"/>
      <point x="367" y="673"/>
      <point x="343" y="646"/>
      <point x="310" y="646" type="curve" smooth="yes"/>
      <point x="276" y="646"/>
      <point x="251" y="673"/>
      <point x="251" y="705" type="curve" smooth="yes"/>
      <point x="251" y="737"/>
      <point x="275" y="762"/>
      <point x="310" y="762" type="curve" smooth="yes"/>
    </contour>
    <contour>
      <point x="62" y="176" type="line" smooth="yes"/>
      <point x="62" y="58"/>
      <point x="124" y="-8"/>
      <point x="237" y="-8" type="curve" smooth="yes"/>
      <point x="309" y="-8"/>
      <point x="370" y="20"/>
      <point x="414" y="73" type="curve"/>
      <point x="431" y="0" type="line"/>
      <point x="555" y="0" type="line"/>
      <point x="555" y="524" type="line"/>
      <point x="405" y="524" type="line"/>
      <point x="405" y="158" type="line"/>
      <point x="379" y="120"/>
      <point x="334" y="98"/>
      <point x="288" y="98" type="curve" smooth="yes"/>
      <point x="235" y="98"/>
      <point x="212" y="124"/>
      <point x="212" y="184" type="curve" smooth="yes"/>
      <point x="212" y="524" type="line"/>
      <point x="62" y="524" type="line"/>
    </contour>
  </outline>
</glyph>
<glyph name="Uhungarumlaut" format="1">
  <advance width="724"/>
  <unicode hex="0170"/>
  <outline>
    <contour>
      <point x="345" y="967" type="line"/>
      <point x="220" y="792" type="line"/>
      <point x="272" y="754" type="line"/>
      <point x="428" y="901" type="line"/>
    </contour>
    <contour>
      <point x="524" y="967" type="line"/>
      <point x="398" y="792" type="line"/>
      <point x="450" y="754" type="line"/>
      <point x="607" y="901" type="line"/>
    </contour>
    <contour>
      <point x="658" y="709" type="line"/>
      <point x="505" y="709" type="line"/>
      <point x="505" y="240" type="line" smooth="yes"/>
      <point x="505" y="154"/>
      <point x="456" y="111"/>
      <point x="362" y="111" type="curve" smooth="yes"/>
      <point x="266" y="111"/>
      <point x="219" y="154"/>
      <point x="219" y="240" type="curve" smooth="yes"/>
      <point x="219" y="709" type="line"/>
      <point x="66" y="709" type="line"/>
      <point x="66" y="242" type="line" smooth="yes"/>
      <point x="66" y="76"/>
      <point x="168" y="-10"/>
      <point x="362" y="-10" type="curve" smooth="yes"/>
      <point x="553" y="-10"/>
      <point x="658" y="78"/>
      <point x="658" y="242" type="curve" smooth="yes"/>
    </contour>
  </outline>
</glyph>
<glyph name="Uogonek" format="1">
  <advance width="719"/>
  <unicode hex="0172"/>
  <outline>
    <contour>
      <point x="653" y="709" type="line"/>
      <point x="500" y="709" type="line"/>
      <point x="500" y="240" type="line" smooth="yes"/>
      <point x="500" y="154"/>
      <point x="451" y="111"/>
      <point x="357" y="111" type="curve" smooth="yes"/>
      <point x="261" y="111"/>
      <point x="214" y="154"/>
      <point x="214" y="240" type="curve" smooth="yes"/>
      <point x="214" y="709" type="line"/>
      <point x="61" y="709" type="line"/>
      <point x="61" y="242" type="line" smooth="yes"/>
      <point x="61" y="88"/>
      <point x="149" y="1"/>
      <point x="317" y="-9" type="curve"/>
      <point x="327" y="-9" type="line"/>
      <point x="327" y="-14" type="line"/>
      <point x="281" y="-40"/>
      <point x="248" y="-84"/>
      <point x="248" y="-131" type="curve" smooth="yes"/>
      <point x="248" y="-195"/>
      <point x="295" y="-225"/>
      <point x="350" y="-225" type="curve" smooth="yes"/>
      <point x="394" y="-225"/>
      <point x="428" y="-214"/>
      <point x="471" y="-192" type="curve"/>
      <point x="453" y="-141" type="line"/>
      <point x="438" y="-148"/>
      <point x="420" y="-152"/>
      <point x="405" y="-152" type="curve" smooth="yes"/>
      <point x="382" y="-152"/>
      <point x="364" y="-139"/>
      <point x="364" y="-111" type="curve" smooth="yes"/>
      <point x="364" y="-81"/>
      <point x="381" y="-54"/>
      <point x="408" y="-33" type="curve" smooth="yes"/>
      <point x="451" y="2"/>
      <point x="503" y="7"/>
      <point x="547" y="33" type="curve" smooth="yes"/>
      <point x="616" y="75"/>
      <point x="653" y="145"/>
      <point x="653" y="242" type="curve" smooth="yes"/>
    </contour>
  </outline>
</glyph>
<glyph name="Ycircumflex" format="1">
  <advance width="622"/>
  <unicode hex="0176"/>
  <outline>
    <contour>
      <point x="482" y="801" type="line"/>
      <point x="326" y="942" type="line"/>
      <point x="295" y="942" type="line"/>
      <point x="139" y="801" type="line"/>
      <point x="180" y="751" type="line"/>
      <point x="310" y="838" type="line"/>
      <point x="441" y="751" type="line"/>
    </contour>
    <contour>
      <point x="0" y="709" type="line"/>
      <point x="234" y="275" type="line"/>
      <point x="234" y="0" type="line"/>
      <point x="387" y="0" type="line"/>
      <point x="387" y="275" type="line"/>
      <point x="622" y="709" type="line"/>
      <point x="458" y="709" type="line"/>
      <point x="371" y="534" type="line" smooth="yes"/>
      <point x="351" y="492"/>
      <point x="315" y="390"/>
      <point x="315" y="390" type="curve" smooth="yes"/>
      <point x="307" y="390" type="line" smooth="yes"/>
      <point x="307" y="390"/>
      <point x="270" y="492"/>
      <point x="251" y="534" type="curve" smooth="yes"/>
      <point x="165" y="709" type="line"/>
    </contour>
  </outline>
</glyph>
<glyph name="Ydieresis" format="1">
  <advance width="622"/>
  <unicode hex="0178"/>
  <outline>
    <contour>
      <point x="267" y="901" type="line"/>
      <point x="145" y="901" type="line"/>
      <point x="145" y="783" type="line"/>
      <point x="267" y="783" type="line"/>
    </contour>
    <contour>
      <point x="473" y="901" type="line"/>
      <point x="352" y="901" type="line"/>
      <point x="352" y="783" type="line"/>
      <point x="473" y="783" type="line"/>
    </contour>
    <contour>
      <point x="0" y="709" type="line"/>
      <point x="234" y="275" type="line"/>
      <point x="234" y="0" type="line"/>
      <point x="387" y="0" type="line"/>
      <point x="387" y="275" type="line"/>
      <point x="622" y="709" type="line"/>
      <point x="458" y="709" type="line"/>
      <point x="371" y="534" type="line" smooth="yes"/>
      <point x="351" y="492"/>
      <point x="315" y="390"/>
      <point x="315" y="390" type="curve" smooth="yes"/>
      <point x="307" y="390" type="line" smooth="yes"/>
      <point x="307" y="390"/>
      <point x="270" y="492"/>
      <point x="251" y="534" type="curve" smooth="yes"/>
      <point x="165" y="709" type="line"/>
    </contour>
  </outline>
</glyph>
<glyph name="Zcaron" format="1">
  <advance width="567"/>
  <unicode hex="017D"/>
  <outline>
    <contour>
      <point x="472" y="899" type="line"/>
      <point x="431" y="949" type="line"/>
      <point x="300" y="862" type="line"/>
      <point x="170" y="949" type="line"/>
      <point x="129" y="899" type="line"/>
      <point x="285" y="758" type="line"/>
      <point x="316" y="758" type="line"/>
    </contour>
    <contour>
      <point x="364" y="595" type="line"/>
      <point x="27" y="100" type="line"/>
      <point x="27" y="0" type="line"/>
      <point x="535" y="0" type="line"/>
      <point x="535" y="115" type="line"/>
      <point x="200" y="115" type="line"/>
      <point x="538" y="612" type="line"/>
      <point x="538" y="711" type="line"/>
      <point x="38" y="711" type="line"/>
      <point x="38" y="595" type="line"/>
    </contour>
  </outline>
</glyph>
<glyph name="AEacute" format="1">
  <advance width="984"/>
  <unicode hex="01FC"/>
  <outline>
    <contour>
      <point x="588" y="754" type="line"/>
      <point x="768" y="879" type="line"/>
      <point x="703" y="965" type="line"/>
      <point x="547" y="804" type="line"/>
    </contour>
    <contour>
      <point x="947" y="111" type="line"/>
      <point x="645" y="111" type="line"/>
      <point x="645" y="311" type="line"/>
      <point x="911" y="311" type="line"/>
      <point x="911" y="420" type="line"/>
      <point x="645" y="420" type="line"/>
      <point x="645" y="599" type="line"/>
      <point x="938" y="599" type="line"/>
      <point x="938" y="709" type="line"/>
      <point x="393" y="709" type="line"/>
      <point x="4" y="0" type="line"/>
      <point x="159" y="0" type="line"/>
      <point x="258" y="184" type="line"/>
      <point x="493" y="184" type="line"/>
      <point x="493" y="0" type="line"/>
      <point x="947" y="0" type="line"/>
    </contour>
    <contour>
      <point x="493" y="292" type="line"/>
      <point x="316" y="292" type="line"/>
      <point x="493" y="622" type="line"/>
    </contour>
  </outline>
</glyph>
<glyph name="Oslashacute" format="1">
  <advance width="750"/>
  <unicode hex="01FE"/>
  <outline>
    <contour>
      <point x="354" y="754" type="line"/>
      <point x="534" y="879" type="line"/>
      <point x="469" y="965" type="line"/>
      <point x="313" y="804" type="line"/>
    </contour>
    <contour>
      <point x="605" y="746" type="line"/>
      <point x="519" y="746" type="line"/>
      <point x="498" y="702" type="line"/>
      <point x="462" y="713"/>
      <point x="421" y="718"/>
      <point x="376" y="718" type="curve" smooth="yes"/>
      <point x="155" y="718"/>
      <point x="36" y="588"/>
      <point x="36" y="357" type="curve" smooth="yes"/>
      <point x="36" y="205"/>
      <point x="85" y="96"/>
      <point x="179" y="39" type="curve"/>
      <point x="143" y="-37" type="line"/>
      <point x="230" y="-37" type="line"/>
      <point x="251" y="7" type="line"/>
      <point x="288" y="-3"/>
      <point x="330" y="-9"/>
      <point x="376" y="-9" type="curve" smooth="yes"/>
      <point x="598" y="-9"/>
      <point x="715" y="122"/>
      <point x="715" y="357" type="curve" smooth="yes"/>
      <point x="715" y="507"/>
      <point x="665" y="615"/>
      <point x="569" y="671" type="curve"/>
    </contour>
    <contour>
      <point x="193" y="515"/>
      <point x="254" y="599"/>
      <point x="375" y="599" type="curve" smooth="yes"/>
      <point x="400" y="599"/>
      <point x="423" y="595"/>
      <point x="443" y="588" type="curve"/>
      <point x="242" y="169" type="line"/>
      <point x="209" y="211"/>
      <point x="193" y="274"/>
      <point x="193" y="357" type="curve" smooth="yes"/>
    </contour>
    <contour>
      <point x="349" y="111"/>
      <point x="326" y="115"/>
      <point x="306" y="122" type="curve"/>
      <point x="507" y="542" type="line"/>
      <point x="540" y="501"/>
      <point x="557" y="439"/>
      <point x="557" y="357" type="curve" smooth="yes"/>
      <point x="557" y="198"/>
      <point x="496" y="111"/>
      <point x="375" y="111" type="curve" smooth="yes"/>
    </contour>
  </outline>
</glyph>
<glyph name="oslashacute" format="1">
  <advance width="597"/>
  <unicode hex="01FF"/>
  <outline>
    <contour>
      <point x="278" y="570" type="line"/>
      <point x="458" y="695" type="line"/>
      <point x="393" y="781" type="line"/>
      <point x="237" y="620" type="line"/>
    </contour>
    <contour>
      <point x="536" y="567" type="line"/>
      <point x="441" y="567" type="line"/>
      <point x="409" y="515" type="line"/>
      <point x="377" y="526"/>
      <point x="340" y="532"/>
      <point x="298" y="532" type="curve" smooth="yes"/>
      <point x="127" y="532"/>
      <point x="32" y="435"/>
      <point x="32" y="263" type="curve" smooth="yes"/>
      <point x="32" y="166"/>
      <point x="62" y="92"/>
      <point x="119" y="46" type="curve"/>
      <point x="63" y="-44" type="line"/>
      <point x="157" y="-44" type="line"/>
      <point x="189" y="8" type="line"/>
      <point x="221" y="-3"/>
      <point x="257" y="-9"/>
      <point x="298" y="-9" type="curve" smooth="yes"/>
      <point x="469" y="-9"/>
      <point x="565" y="90"/>
      <point x="565" y="263" type="curve" smooth="yes"/>
      <point x="565" y="359"/>
      <point x="536" y="431"/>
      <point x="480" y="477" type="curve"/>
    </contour>
    <contour>
      <point x="183" y="373"/>
      <point x="221" y="424"/>
      <point x="298" y="424" type="curve" smooth="yes"/>
      <point x="317" y="424"/>
      <point x="333" y="421"/>
      <point x="347" y="415" type="curve"/>
      <point x="196" y="171" type="line"/>
      <point x="187" y="195"/>
      <point x="183" y="226"/>
      <point x="183" y="263" type="curve" smooth="yes"/>
    </contour>
    <contour>
      <point x="281" y="102"/>
      <point x="265" y="105"/>
      <point x="252" y="110" type="curve"/>
      <point x="402" y="351" type="line"/>
      <point x="410" y="328"/>
      <point x="414" y="298"/>
      <point x="414" y="263" type="curve" smooth="yes"/>
      <point x="414" y="152"/>
      <point x="375" y="102"/>
      <point x="298" y="102" type="curve" smooth="yes"/>
    </contour>
  </outline>
</glyph>
<glyph name="circumflex" format="1">
  <advance width="415"/>
  <unicode hex="02C6"/>
  <outline>
    <contour>
      <point x="379" y="617" type="line"/>
      <point x="223" y="758" type="line"/>
      <point x="192" y="758" type="line"/>
      <point x="36" y="617" type="line"/>
      <point x="77" y="567" type="line"/>
      <point x="207" y="654" type="line"/>
      <point x="338" y="567" type="line"/>
    </contour>
  </outline>
</glyph>
<glyph name="dotbelowcomb" format="1">
  <advance width="0"/>
  <unicode hex="0323"/>
  <outline>
    <contour>
      <point x="151" y="-72" type="line"/>
      <point x="36" y="-72" type="line"/>
      <point x="36" y="-179" type="line"/>
      <point x="151" y="-179" type="line"/>
    </contour>
    <contour>
      <point x="240" y="524" type="move" name="_class0"/>
    </contour>
  </outline>
</glyph>
<glyph name="mu" format="1">
  <advance width="638"/>
  <unicode hex="03BC"/>
  <outline>
    <contour>
      <point x="564" y="524" type="line"/>
      <point x="414" y="524" type="line"/>
      <point x="414" y="158" type="line"/>
      <point x="387" y="120"/>
      <point x="343" y="98"/>
      <point x="297" y="98" type="curve" smooth="yes"/>
      <point x="243" y="98"/>
      <point x="220" y="124"/>
      <point x="220" y="184" type="curve" smooth="yes"/>
      <point x="220" y="524" type="line"/>
      <point x="70" y="524" type="line"/>
      <point x="70" y="-209" type="line"/>
      <point x="220" y="-209" type="line"/>
      <point x="201" y="-4" type="line"/>
      <point x="215" y="-7"/>
      <point x="230" y="-8"/>
      <point x="246" y="-8" type="curve" smooth="yes"/>
      <point x="318" y="-8"/>
      <point x="379" y="20"/>
      <point x="423" y="73" type="curve"/>
      <point x="439" y="0" type="line"/>
      <point x="564" y="0" type="line"/>
    </contour>
  </outline>
</glyph>
<glyph name="u-deva" format="1">
  <advance width="527"/>
  <unicode hex="0909"/>
  <outline>
    <contour>
      <point x="245" y="344" type="line"/>
      <point x="302" y="325"/>
      <point x="349" y="280"/>
      <point x="349" y="223" type="curve" smooth="yes"/>
      <point x="349" y="173"/>
      <point x="311" y="142"/>
      <point x="261" y="142" type="curve" smooth="yes"/>
      <point x="199" y="142"/>
      <point x="146" y="173"/>
      <point x="103" y="231" type="curve"/>
      <point x="8" y="168" type="line"/>
      <point x="77" y="64"/>
      <point x="171" y="22"/>
      <point x="269" y="22" type="curve" smooth="yes"/>
      <point x="394" y="22"/>
      <point x="484" y="97"/>
      <point x="484" y="222" type="curve" smooth="yes"/>
      <point x="484" y="307"/>
      <point x="425" y="371"/>
      <point x="333" y="410" type="curve"/>
    </contour>
    <contour>
      <point x="252" y="596" type="line"/>
      <point x="278" y="578"/>
      <point x="303" y="545"/>
      <point x="303" y="512" type="curve" smooth="yes"/>
      <point x="303" y="458"/>
      <point x="264" y="430"/>
      <point x="149" y="406" type="curve"/>
      <point x="179" y="298" type="line"/>
      <point x="383" y="330"/>
      <point x="438" y="419"/>
      <point x="438" y="513" type="curve" smooth="yes"/>
      <point x="438" y="593"/>
      <point x="387" y="634"/>
      <point x="362" y="656" type="curve"/>
    </contour>
    <contour>
      <point x="-30" y="685" type="line"/>
      <point x="-30" y="575" type="line"/>
      <point x="557" y="575" type="line"/>
      <point x="557" y="685" type="line"/>
    </contour>
    <contour>
      <point x="316" y="685" type="move" name="top"/>
    </contour>
    <contour>
      <point x="306" y="0" type="move" name="bottom"/>
    </contour>
  </outline>
</glyph>
<glyph name="eShort-deva" format="1">
  <advance width="606"/>
  <unicode hex="090E"/>
  <outline>
    <component base="e-deva"/>
    <component base="eShortMatra-deva" xOffset="90"/>
    <contour>
      <point x="294" y="685" type="move" name="top"/>
    </contour>
    <contour>
      <point x="294" y="0" type="move" name="bottom"/>
    </contour>
  </outline>
</glyph>
<glyph name="da-deva" format="1">
  <advance width="552"/>
  <unicode hex="0926"/>
  <outline>
    <contour>
      <point x="320" y="594" type="line"/>
      <point x="320" y="493" type="line"/>
      <point x="279" y="493" type="line" smooth="yes"/>
      <point x="123" y="493"/>
      <point x="37" y="442"/>
      <point x="37" y="286" type="curve" smooth="yes"/>
      <point x="37" y="148"/>
      <point x="153" y="58"/>
      <point x="291" y="58" type="curve" smooth="yes"/>
      <point x="410" y="58"/>
      <point x="504" y="91"/>
      <point x="504" y="159" type="curve" smooth="yes"/>
      <point x="504" y="213"/>
      <point x="439" y="269"/>
      <point x="364" y="269" type="curve" smooth="yes"/>
      <point x="309" y="269"/>
      <point x="288" y="232"/>
      <point x="288" y="197" type="curve" smooth="yes"/>
      <point x="288" y="158"/>
      <point x="305" y="120"/>
      <point x="318" y="93" type="curve"/>
      <point x="456" y="-114" type="line"/>
      <point x="560" y="-46" type="line"/>
      <point x="418" y="153" type="line"/>
      <point x="438" y="205" type="line"/>
      <point x="391" y="179"/>
      <point x="339" y="164"/>
      <point x="294" y="164" type="curve" smooth="yes"/>
      <point x="219" y="164"/>
      <point x="172" y="211"/>
      <point x="172" y="286" type="curve" smooth="yes"/>
      <point x="172" y="348"/>
      <point x="214" y="383"/>
      <point x="276" y="383" type="curve" smooth="yes"/>
      <point x="454" y="383" type="line"/>
      <point x="454" y="594" type="line"/>
    </contour>
    <contour>
      <point x="-30" y="685" type="line"/>
      <point x="-30" y="575" type="line"/>
      <point x="582" y="575" type="line"/>
      <point x="582" y="685" type="line"/>
    </contour>
    <contour>
      <point x="397" y="685" type="move" name="top"/>
    </contour>
    <contour>
      <point x="281" y="0" type="move" name="bottom"/>
    </contour>
  </outline>
</glyph>
<glyph name="pa-deva" format="1">
  <advance width="625"/>
  <unicode hex="092A"/>
  <outline>
    <component base="p-deva"/>
    <component base="aaMatra-deva" xOffset="280"/>
    <contour>
      <point x="453" y="685" type="move" name="top"/>
    </contour>
    <contour>
      <point x="453" y="0" type="move" name="bottom"/>
    </contour>
  </outline>
</glyph>
<glyph name="ya-deva" format="1">
  <advance width="695"/>
  <unicode hex="092F"/>
  <outline>
    <component base="y-deva"/>
    <component base="aaMatra-deva" xOffset="350"/>
    <contour>
      <point x="163" y="-7" type="move" name="nukta"/>
    </contour>
    <contour>
      <point x="523" y="0" type="move" name="bottom"/>
    </contour>
    <contour>
      <point x="523" y="685" type="move" name="top"/>
    </contour>
  </outline>
</glyph>
<glyph name="va-deva" format="1">
  <advance width="628"/>
  <unicode hex="0935"/>
  <outline>
    <component base="v-deva"/>
    <component base="aaMatra-deva" xOffset="283"/>
    <contour>
      <point x="456" y="685" type="move" name="top"/>
    </contour>
    <contour>
      <point x="456" y="0" type="move" name="bottom"/>
    </contour>
  </outline>
</glyph>
<glyph name="aiMatra-deva" format="1">
  <advance width="486"/>
  <unicode hex="0948"/>
  <outline>
    <contour>
      <point x="32" y="889" type="line"/>
      <point x="314" y="670" type="line"/>
      <point x="417" y="670" type="line"/>
      <point x="403" y="716" type="line"/>
      <point x="110" y="970" type="line"/>
    </contour>
    <contour>
      <point x="235" y="963" type="line"/>
      <point x="363" y="670" type="line"/>
      <point x="446" y="670" type="line"/>
      <point x="342" y="1006" type="line"/>
    </contour>
    <contour>
      <point x="397" y="685" type="move" name="_top"/>
    </contour>
  </outline>
</glyph>
<glyph name="oCandraMatra-deva" format="1">
  <advance width="345"/>
  <unicode hex="0949"/>
  <outline>
    <component base="aaMatra-deva"/>
    <component base="eCandraMatra-deva" xOffset="-38"/>
    <contour>
      <point x="171" y="907" type="move" name="top"/>
    </contour>
  </outline>
</glyph>
<glyph name="acute-deva" format="1">
  <advance width="273"/>
  <unicode hex="0954"/>
  <outline>
    <contour>
      <point x="253" y="903" type="line"/>
      <point x="191" y="947" type="line"/>
      <point x="20" y="733" type="line"/>
      <point x="75" y="697" type="line"/>
    </contour>
  </outline>
</glyph>
<glyph name="ueMatra-deva" format="1">
  <advance width="460"/>
  <unicode hex="0956"/>
  <outline>
    <contour>
      <point x="341" y="-30" type="line"/>
      <point x="321" y="-82"/>
      <point x="282" y="-112"/>
      <point x="232" y="-112" type="curve" smooth="yes"/>
      <point x="182" y="-112"/>
      <point x="143" y="-82"/>
      <point x="123" y="-30" type="curve"/>
      <point x="25" y="-57" type="line"/>
      <point x="55" y="-155"/>
      <point x="128" y="-210"/>
      <point x="232" y="-210" type="curve" smooth="yes"/>
      <point x="332" y="-210"/>
      <point x="405" y="-154"/>
      <point x="435" y="-55" type="curve"/>
    </contour>
    <contour>
      <point x="230" y="0" type="move" name="_bottom"/>
    </contour>
  </outline>
</glyph>
<glyph name="fa-deva" format="1">
  <advance width="898"/>
  <unicode hex="095E"/>
  <outline>
    <component base="pha-deva"/>
    <component base="nukta-deva" xOffset="106" yOffset="161"/>
    <contour>
      <point x="449" y="685" type="move" name="top"/>
    </contour>
    <contour>
      <point x="449" y="0" type="move" name="bottom"/>
    </contour>
  </outline>
</glyph>
<glyph name="dbldanda-deva" format="1">
  <advance width="553"/>
  <unicode hex="0965"/>
  <outline>
    <contour>
      <point x="94" y="688" type="line"/>
      <point x="94" y="-48" type="line"/>
      <point x="229" y="-48" type="line"/>
      <point x="229" y="688" type="line"/>
    </contour>
    <contour>
      <point x="324" y="688" type="line"/>
      <point x="324" y="-48" type="line"/>
      <point x="459" y="-48" type="line"/>
      <point x="459" y="688" type="line"/>
    </contour>
  </outline>
</glyph>
<glyph name="gga-deva" format="1">
  <advance width="652"/>
  <unicode hex="097B"/>
  <outline>
    <contour>
      <point x="47" y="-110" type="line"/>
      <point x="558" y="-110" type="line"/>
      <point x="558" y="0" type="line"/>
      <point x="47" y="0" type="line"/>
    </contour>
    <contour>
      <point x="423" y="608" type="line"/>
      <point x="423" y="0" type="line"/>
      <point x="558" y="0" type="line"/>
      <point x="558" y="608" type="line"/>
    </contour>
    <contour>
      <point x="298" y="685" type="line"/>
      <point x="298" y="575" type="line"/>
      <point x="683" y="575" type="line"/>
      <point x="683" y="685" type="line"/>
    </contour>
    <component base="g-deva"/>
    <contour>
      <point x="557" y="685" type="move" name="imatra"/>
    </contour>
    <contour>
      <point x="179" y="40" type="move" name="nukta"/>
    </contour>
    <contour>
      <point x="480" y="687" type="move" name="top"/>
    </contour>
    <contour>
      <point x="480" y="0" type="move" name="bottom"/>
    </contour>
  </outline>
</glyph>
<glyph name="glottalstop-deva" format="1">
  <advance width="544"/>
  <unicode hex="097D"/>
  <outline>
    <contour>
      <point x="197" y="685"/>
      <point x="116" y="662"/>
      <point x="50" y="622" type="curve"/>
      <point x="98" y="520" type="line"/>
      <point x="158" y="555"/>
      <point x="223" y="576"/>
      <point x="272" y="576" type="curve" smooth="yes"/>
      <point x="332" y="576"/>
      <point x="365" y="546"/>
      <point x="365" y="492" type="curve"/>
      <point x="365" y="411"/>
      <point x="296" y="356"/>
      <point x="157" y="325" type="curve"/>
      <point x="157" y="0" type="line"/>
      <point x="301" y="0" type="line"/>
      <point x="301" y="250" type="line"/>
      <point x="432" y="301"/>
      <point x="509" y="391"/>
      <point x="509" y="492" type="curve"/>
      <point x="509" y="608"/>
      <point x="415" y="685"/>
      <point x="273" y="685" type="curve" smooth="yes"/>
    </contour>
  </outline>
</glyph>
<glyph name="zerowidthjoiner" format="1">
  <advance width="0"/>
  <unicode hex="200D"/>
  <outline>
    <contour>
      <point x="0" y="756" type="line"/>
      <point x="0" y="-244" type="line"/>
      <point x="114" y="-244" type="line"/>
      <point x="114" y="672" type="line"/>
      <point x="255" y="672" type="line"/>
      <point x="255" y="756" type="line"/>
    </contour>
  </outline>
</glyph>
<glyph name="emdash" format="1">
  <advance width="880"/>
  <unicode hex="2014"/>
  <outline>
    <contour>
      <point x="815" y="374" type="line"/>
      <point x="65" y="374" type="line"/>
      <point x="65" y="268" type="line"/>
      <point x="815" y="268" type="line"/>
    </contour>
  </outline>
</glyph>
<glyph name="quotesinglbase" format="1">
  <advance width="248"/>
  <unicode hex="201A"/>
  <outline>
    <contour>
      <point x="184" y="151" type="line"/>
      <point x="64" y="151" type="line"/>
      <point x="74" y="-132" type="line"/>
      <point x="174" y="-132" type="line"/>
    </contour>
  </outline>
</glyph>
<glyph name="quotereversed" format="1">
  <advance width="286"/>
  <unicode hex="201B"/>
  <outline>
    <contour>
      <point x="52" y="729" type="line"/>
      <point x="52" y="613" type="line"/>
      <point x="123" y="446" type="line"/>
      <point x="220" y="446" type="line"/>
      <point x="170" y="589" type="line"/>
      <point x="224" y="589" type="line"/>
      <point x="224" y="729" type="line"/>
    </contour>
  </outline>
</glyph>
<glyph name="daggerdbl" format="1">
  <advance width="531"/>
  <unicode hex="2021"/>
  <outline>
    <contour>
      <point x="7" y="37" type="line"/>
      <point x="208" y="37" type="line"/>
      <point x="208" y="-193" type="line"/>
      <point x="323" y="-193" type="line"/>
      <point x="323" y="37" type="line"/>
      <point x="524" y="37" type="line"/>
      <point x="524" y="140" type="line"/>
      <point x="323" y="140" type="line"/>
      <point x="323" y="422" type="line"/>
      <point x="524" y="422" type="line"/>
      <point x="524" y="525" type="line"/>
      <point x="323" y="525" type="line"/>
      <point x="323" y="774" type="line"/>
      <point x="208" y="774" type="line"/>
      <point x="208" y="525" type="line"/>
      <point x="7" y="525" type="line"/>
      <point x="7" y="422" type="line"/>
      <point x="208" y="422" type="line"/>
      <point x="208" y="140" type="line"/>
      <point x="7" y="140" type="line"/>
    </contour>
  </outline>
</glyph>
<glyph name="exclamdbl" format="1">
  <advance width="527"/>
  <unicode hex="203C"/>
  <outline>
    <contour>
      <point x="212" y="740" type="line"/>
      <point x="61" y="740" type="line"/>
      <point x="79" y="214" type="line"/>
      <point x="194" y="214" type="line"/>
    </contour>
    <contour>
      <point x="467" y="740" type="line"/>
      <point x="315" y="740" type="line"/>
      <point x="333" y="214" type="line"/>
      <point x="448" y="214" type="line"/>
    </contour>
    <contour>
      <point x="212" y="125" type="line"/>
      <point x="62" y="125" type="line"/>
      <point x="62" y="-7" type="line"/>
      <point x="212" y="-7" type="line"/>
    </contour>
    <contour>
      <point x="466" y="125" type="line"/>
      <point x="317" y="125" type="line"/>
      <point x="317" y="-7" type="line"/>
      <point x="466" y="-7" type="line"/>
    </contour>
  </outline>
</glyph>
<glyph name="rupeeIndian" format="1">
  <advance width="431"/>
  <unicode hex="20B9"/>
  <outline>
    <contour>
      <point x="-18" y="520" type="line"/>
      <point x="-18" y="410" type="line"/>
      <point x="329" y="410" type="line"/>
      <point x="329" y="520" type="line"/>
    </contour>
    <contour>
      <point x="145" y="613" type="line"/>
      <point x="203" y="553"/>
      <point x="241" y="482"/>
      <point x="241" y="435" type="curve" smooth="yes"/>
      <point x="241" y="381"/>
      <point x="214" y="347"/>
      <point x="167" y="347" type="curve" smooth="yes"/>
      <point x="142" y="347"/>
      <point x="115" y="358"/>
      <point x="88" y="376" type="curve"/>
      <point x="22" y="295" type="line"/>
      <point x="52" y="257"/>
      <point x="110" y="238"/>
      <point x="169" y="238" type="curve" smooth="yes"/>
      <point x="298" y="238"/>
      <point x="376" y="309"/>
      <point x="376" y="433" type="curve" smooth="yes"/>
      <point x="376" y="501"/>
      <point x="335" y="581"/>
      <point x="255" y="670" type="curve"/>
    </contour>
    <contour>
      <point x="23" y="295" type="line"/>
      <point x="266" y="-34" type="line"/>
      <point x="374" y="41" type="line"/>
      <point x="178" y="314" type="line"/>
      <point x="88" y="376" type="line"/>
    </contour>
    <contour>
      <point x="-20" y="685" type="line"/>
      <point x="-20" y="575" type="line"/>
      <point x="451" y="575" type="line"/>
      <point x="451" y="685" type="line"/>
    </contour>
    <contour>
      <point x="76" y="-20" type="move" name="nukta"/>
    </contour>
    <contour>
      <point x="208" y="0" type="move" name="bottom"/>
    </contour>
    <contour>
      <point x="223" y="685" type="move" name="top"/>
    </contour>
  </outline>
</glyph>
<glyph name="trademark" format="1">
  <advance width="711"/>
  <unicode hex="2122"/>
  <outline>
    <contour>
      <point x="0" y="639" type="line"/>
      <point x="92" y="639" type="line"/>
      <point x="92" y="367" type="line"/>
      <point x="188" y="367" type="line"/>
      <point x="188" y="639" type="line"/>
      <point x="280" y="639" type="line"/>
      <point x="280" y="709" type="line"/>
      <point x="0" y="709" type="line"/>
    </contour>
    <contour>
      <point x="430" y="709" type="line"/>
      <point x="335" y="709" type="line"/>
      <point x="288" y="367" type="line"/>
      <point x="379" y="367" type="line"/>
      <point x="404" y="567" type="line"/>
      <point x="464" y="367" type="line"/>
      <point x="535" y="367" type="line"/>
      <point x="594" y="567" type="line"/>
      <point x="620" y="367" type="line"/>
      <point x="710" y="367" type="line"/>
      <point x="663" y="709" type="line"/>
      <point x="568" y="709" type="line"/>
      <point x="500" y="511" type="line"/>
    </contour>
  </outline>
</glyph>
<glyph name="partialdiff" format="1">
  <advance width="580"/>
  <unicode hex="2202"/>
  <outline>
    <contour>
      <point x="55" y="91"/>
      <point x="141" y="-10"/>
      <point x="280" y="-10" type="curve" smooth="yes"/>
      <point x="437" y="-10"/>
      <point x="520" y="106"/>
      <point x="520" y="322" type="curve" smooth="yes"/>
      <point x="520" y="566"/>
      <point x="412" y="722"/>
      <point x="246" y="722" type="curve" smooth="yes"/>
      <point x="177" y="722"/>
      <point x="113" y="683"/>
      <point x="68" y="612" type="curve"/>
      <point x="110" y="571" type="line"/>
      <point x="156" y="609"/>
      <point x="197" y="625"/>
      <point x="248" y="625" type="curve" smooth="yes"/>
      <point x="321" y="625"/>
      <point x="372" y="566"/>
      <point x="393" y="455" type="curve"/>
      <point x="361" y="486"/>
      <point x="317" y="503"/>
      <point x="270" y="503" type="curve" smooth="yes"/>
      <point x="140" y="503"/>
      <point x="55" y="404"/>
      <point x="55" y="252" type="curve" smooth="yes"/>
    </contour>
    <contour>
      <point x="406" y="310" type="line" smooth="yes"/>
      <point x="406" y="152"/>
      <point x="367" y="82"/>
      <point x="281" y="82" type="curve" smooth="yes"/>
      <point x="214" y="82"/>
      <point x="169" y="150"/>
      <point x="169" y="252" type="curve" smooth="yes"/>
      <point x="169" y="350"/>
      <point x="213" y="410"/>
      <point x="286" y="410" type="curve" smooth="yes"/>
      <point x="338" y="410"/>
      <point x="388" y="378"/>
      <point x="406" y="332" type="curve"/>
    </contour>
  </outline>
</glyph>
<glyph name="infinity" format="1">
  <advance width="950"/>
  <unicode hex="221E"/>
  <outline>
    <contour>
      <point x="61" y="201"/>
      <point x="140" y="127"/>
      <point x="258" y="127" type="curve" smooth="yes"/>
      <point x="317" y="127"/>
      <point x="401" y="171"/>
      <point x="472" y="239" type="curve"/>
      <point x="543" y="171"/>
      <point x="626" y="127"/>
      <point x="684" y="127" type="curve" smooth="yes"/>
      <point x="803" y="127"/>
      <point x="889" y="205"/>
      <point x="889" y="312" type="curve" smooth="yes"/>
      <point x="889" y="423"/>
      <point x="813" y="497"/>
      <point x="702" y="497" type="curve" smooth="yes"/>
      <point x="631" y="497"/>
      <point x="545" y="453"/>
      <point x="477" y="385" type="curve"/>
      <point x="410" y="455"/>
      <point x="327" y="497"/>
      <point x="257" y="497" type="curve" smooth="yes"/>
      <point x="143" y="497"/>
      <point x="61" y="419"/>
      <point x="61" y="312" type="curve" smooth="yes"/>
    </contour>
    <contour>
      <point x="359" y="259"/>
      <point x="308" y="229"/>
      <point x="268" y="229" type="curve" smooth="yes"/>
      <point x="214" y="229"/>
      <point x="179" y="262"/>
      <point x="179" y="312" type="curve" smooth="yes"/>
      <point x="179" y="361"/>
      <point x="212" y="395"/>
      <point x="261" y="395" type="curve" smooth="yes"/>
      <point x="301" y="395"/>
      <point x="359" y="362"/>
      <point x="410" y="312" type="curve"/>
    </contour>
    <contour>
      <point x="770" y="260"/>
      <point x="735" y="229"/>
      <point x="679" y="229" type="curve" smooth="yes"/>
      <point x="645" y="229"/>
      <point x="593" y="260"/>
      <point x="541" y="312" type="curve"/>
      <point x="598" y="365"/>
      <point x="652" y="395"/>
      <point x="690" y="395" type="curve" smooth="yes"/>
      <point x="737" y="395"/>
      <point x="770" y="361"/>
      <point x="770" y="312" type="curve" smooth="yes"/>
    </contour>
  </outline>
</glyph>
<glyph name="integral" format="1">
  <advance width="411"/>
  <unicode hex="222B"/>
  <outline>
    <contour>
      <point x="20" y="-191" type="line"/>
      <point x="42" y="-207"/>
      <point x="97" y="-219"/>
      <point x="151" y="-219" type="curve" smooth="yes"/>
      <point x="253" y="-219"/>
      <point x="311" y="-162"/>
      <point x="303" y="-69" type="curve" smooth="yes"/>
      <point x="252" y="569" type="line" smooth="yes"/>
      <point x="248" y="613"/>
      <point x="268" y="632"/>
      <point x="306" y="632" type="curve" smooth="yes"/>
      <point x="322" y="632"/>
      <point x="356" y="624"/>
      <point x="370" y="617" type="curve"/>
      <point x="390" y="700" type="line"/>
      <point x="368" y="716"/>
      <point x="312" y="727"/>
      <point x="259" y="727" type="curve" smooth="yes"/>
      <point x="157" y="727"/>
      <point x="98" y="670"/>
      <point x="106" y="577" type="curve" smooth="yes"/>
      <point x="157" y="-61" type="line" smooth="yes"/>
      <point x="161" y="-105"/>
      <point x="141" y="-123"/>
      <point x="103" y="-123" type="curve" smooth="yes"/>
      <point x="88" y="-123"/>
      <point x="55" y="-116"/>
      <point x="41" y="-109" type="curve"/>
    </contour>
  </outline>
</glyph>
<glyph name="one-deva.comb" format="1">
  <advance width="216"/>
  <unicode hex="A8E1"/>
  <outline>
    <contour>
      <point x="99" y="873" type="line"/>
      <point x="96" y="882"/>
      <point x="95" y="893"/>
      <point x="95" y="899" type="curve" smooth="yes"/>
      <point x="95" y="912"/>
      <point x="100" y="919"/>
      <point x="107" y="919" type="curve" smooth="yes"/>
      <point x="112" y="919"/>
      <point x="121" y="919"/>
      <point x="121" y="900" type="curve" smooth="yes"/>
      <point x="121" y="885"/>
      <point x="115" y="865"/>
      <point x="86" y="836" type="curve" smooth="yes"/>
      <point x="28" y="778" type="line"/>
      <point x="91" y="733" type="line" smooth="yes"/>
      <point x="108" y="720"/>
      <point x="113" y="710"/>
      <point x="113" y="699" type="curve" smooth="yes"/>
      <point x="113" y="692"/>
      <point x="111" y="683"/>
      <point x="108" y="675" type="curve"/>
      <point x="195" y="661" type="line"/>
      <point x="198" y="677"/>
      <point x="201" y="688"/>
      <point x="201" y="704" type="curve" smooth="yes"/>
      <point x="201" y="720"/>
      <point x="198" y="747"/>
      <point x="185" y="756" type="curve" smooth="yes"/>
      <point x="140" y="790" type="line"/>
      <point x="180" y="826"/>
      <point x="207" y="867"/>
      <point x="207" y="909" type="curve" smooth="yes"/>
      <point x="207" y="948"/>
      <point x="174" y="986"/>
      <point x="105" y="986" type="curve" smooth="yes"/>
      <point x="48" y="986"/>
      <point x="9" y="949"/>
      <point x="9" y="903" type="curve" smooth="yes"/>
      <point x="9" y="868"/>
      <point x="27" y="843"/>
      <point x="55" y="825" type="curve"/>
    </contour>
    <contour>
      <point x="108" y="687" type="move" name="_top"/>
    </contour>
  </outline>
</glyph>
<glyph name="two-deva.comb" format="1">
  <advance width="253"/>
  <unicode hex="A8E2"/>
  <outline>
    <contour>
      <point x="85" y="986"/>
      <point x="44" y="978"/>
      <point x="9" y="961" type="curve"/>
      <point x="19" y="896" type="line"/>
      <point x="61" y="913"/>
      <point x="96" y="921"/>
      <point x="118" y="921" type="curve" smooth="yes"/>
      <point x="145" y="921"/>
      <point x="158" y="903"/>
      <point x="158" y="876" type="curve" smooth="yes"/>
      <point x="158" y="846"/>
      <point x="155" y="838"/>
      <point x="130" y="834" type="curve"/>
      <point x="113" y="858"/>
      <point x="101" y="864"/>
      <point x="82" y="864" type="curve" smooth="yes"/>
      <point x="54" y="864"/>
      <point x="27" y="845"/>
      <point x="27" y="813" type="curve" smooth="yes"/>
      <point x="27" y="781"/>
      <point x="53" y="762"/>
      <point x="94" y="759" type="curve"/>
      <point x="158" y="651" type="line"/>
      <point x="224" y="681" type="line"/>
      <point x="170" y="768" type="line"/>
      <point x="208" y="786"/>
      <point x="244" y="820"/>
      <point x="244" y="880" type="curve" smooth="yes"/>
      <point x="244" y="942"/>
      <point x="197" y="986"/>
      <point x="118" y="986" type="curve" smooth="yes"/>
    </contour>
    <contour>
      <point x="126" y="687" type="move" name="_top"/>
    </contour>
  </outline>
</glyph>
<glyph name="u-deva.comb" format="1">
  <advance width="294"/>
  <unicode hex="A8EB"/>
  <outline>
    <contour>
      <point x="9" y="991" type="line"/>
      <point x="9" y="923" type="line"/>
      <point x="142" y="923" type="line"/>
      <point x="142" y="918"/>
      <point x="147" y="911"/>
      <point x="147" y="904" type="curve" smooth="yes"/>
      <point x="147" y="885"/>
      <point x="132" y="875"/>
      <point x="86" y="866" type="curve"/>
      <point x="105" y="797" type="line"/>
      <point x="128" y="799"/>
      <point x="147" y="804"/>
      <point x="162" y="809" type="curve"/>
      <point x="167" y="804"/>
      <point x="176" y="787"/>
      <point x="176" y="774" type="curve" smooth="yes"/>
      <point x="176" y="756"/>
      <point x="158" y="750"/>
      <point x="150" y="750" type="curve" smooth="yes"/>
      <point x="121" y="750"/>
      <point x="104" y="759"/>
      <point x="80" y="780" type="curve"/>
      <point x="21" y="737" type="line"/>
      <point x="62" y="687"/>
      <point x="109" y="673"/>
      <point x="158" y="673" type="curve" smooth="yes"/>
      <point x="221" y="673"/>
      <point x="263" y="710"/>
      <point x="263" y="773" type="curve" smooth="yes"/>
      <point x="263" y="804"/>
      <point x="244" y="827"/>
      <point x="214" y="843" type="curve"/>
      <point x="230" y="863"/>
      <point x="233" y="886"/>
      <point x="233" y="905" type="curve" smooth="yes"/>
      <point x="233" y="913"/>
      <point x="232" y="919"/>
      <point x="234" y="923" type="curve"/>
      <point x="285" y="923" type="line"/>
      <point x="285" y="991" type="line"/>
    </contour>
    <contour>
      <point x="147" y="687" type="move" name="_top"/>
    </contour>
  </outline>
</glyph>
<glyph name="pa-deva.comb" format="1">
  <advance width="358"/>
  <unicode hex="A8EE"/>
  <outline>
    <contour>
      <point x="9" y="991" type="line"/>
      <point x="9" y="923" type="line"/>
      <point x="43" y="923" type="line"/>
      <point x="43" y="841" type="line" smooth="yes"/>
      <point x="43" y="781"/>
      <point x="90" y="741"/>
      <point x="156" y="741" type="curve" smooth="yes"/>
      <point x="176" y="741"/>
      <point x="194" y="745"/>
      <point x="210" y="756" type="curve"/>
      <point x="210" y="669" type="line"/>
      <point x="295" y="669" type="line"/>
      <point x="295" y="923" type="line"/>
      <point x="349" y="923" type="line"/>
      <point x="349" y="991" type="line"/>
    </contour>
    <contour>
      <point x="210" y="834" type="line"/>
      <point x="194" y="814"/>
      <point x="178" y="808"/>
      <point x="160" y="808" type="curve" smooth="yes"/>
      <point x="140" y="808"/>
      <point x="130" y="823"/>
      <point x="130" y="841" type="curve" smooth="yes"/>
      <point x="130" y="923" type="line"/>
      <point x="210" y="923" type="line"/>
    </contour>
    <contour>
      <point x="179" y="687" type="move" name="_top"/>
    </contour>
  </outline>
</glyph>
<glyph name="avagraha-deva.comb" format="1">
  <advance width="259"/>
  <unicode hex="A8F1"/>
  <outline>
    <contour>
      <point x="165" y="991" type="line" smooth="yes"/>
      <point x="89" y="991"/>
      <point x="47" y="958"/>
      <point x="47" y="903" type="curve" smooth="yes"/>
      <point x="47" y="852"/>
      <point x="71" y="824"/>
      <point x="132" y="802" type="curve" smooth="yes"/>
      <point x="157" y="793"/>
      <point x="165" y="785"/>
      <point x="165" y="769" type="curve" smooth="yes"/>
      <point x="165" y="759"/>
      <point x="152" y="750"/>
      <point x="139" y="750" type="curve" smooth="yes"/>
      <point x="112" y="750"/>
      <point x="95" y="759"/>
      <point x="69" y="786" type="curve"/>
      <point x="9" y="741" type="line"/>
      <point x="44" y="696"/>
      <point x="89" y="673"/>
      <point x="146" y="673" type="curve" smooth="yes"/>
      <point x="213" y="673"/>
      <point x="250" y="708"/>
      <point x="250" y="769" type="curve" smooth="yes"/>
      <point x="250" y="811"/>
      <point x="231" y="839"/>
      <point x="187" y="861" type="curve" smooth="yes"/>
      <point x="159" y="875"/>
      <point x="141" y="892"/>
      <point x="141" y="903" type="curve" smooth="yes"/>
      <point x="141" y="914"/>
      <point x="152" y="922"/>
      <point x="165" y="922" type="curve" smooth="yes"/>
      <point x="239" y="922" type="line"/>
      <point x="239" y="991" type="line"/>
    </contour>
    <contour>
      <point x="129" y="687" type="move" name="_top"/>
    </contour>
  </outline>
</glyph>
<glyph name="a_compo" format="1">
  <advance width="598"/>
  <outline>
    <contour>
      <point x="254" y="344" type="line"/>
      <point x="311" y="325"/>
      <point x="358" y="280"/>
      <point x="358" y="223" type="curve" smooth="yes"/>
      <point x="358" y="173"/>
      <point x="320" y="142"/>
      <point x="270" y="142" type="curve" smooth="yes"/>
      <point x="208" y="142"/>
      <point x="155" y="173"/>
      <point x="112" y="231" type="curve"/>
      <point x="17" y="168" type="line"/>
      <point x="86" y="64"/>
      <point x="180" y="22"/>
      <point x="278" y="22" type="curve" smooth="yes"/>
      <point x="408" y="22"/>
      <point x="493" y="93"/>
      <point x="493" y="223" type="curve" smooth="yes"/>
      <point x="493" y="309"/>
      <point x="436" y="369"/>
      <point x="342" y="410" type="curve"/>
    </contour>
    <contour>
      <point x="181" y="685"/>
      <point x="126" y="675"/>
      <point x="76" y="649" type="curve"/>
      <point x="111" y="546" type="line"/>
      <point x="154" y="563"/>
      <point x="179" y="575"/>
      <point x="217" y="575" type="curve" smooth="yes"/>
      <point x="274" y="575"/>
      <point x="297" y="549"/>
      <point x="297" y="512" type="curve" smooth="yes"/>
      <point x="297" y="458"/>
      <point x="258" y="430"/>
      <point x="143" y="406" type="curve"/>
      <point x="173" y="298" type="line"/>
      <point x="377" y="330"/>
      <point x="432" y="419"/>
      <point x="432" y="513" type="curve" smooth="yes"/>
      <point x="432" y="593"/>
      <point x="376" y="685"/>
      <point x="233" y="685" type="curve" smooth="yes"/>
    </contour>
    <contour>
      <point x="294" y="342" type="line"/>
      <point x="343" y="304"/>
      <point x="417" y="281"/>
      <point x="490" y="281" type="curve" smooth="yes"/>
      <point x="551" y="281"/>
      <point x="616" y="292"/>
      <point x="662" y="312" type="curve"/>
      <point x="638" y="416" type="line"/>
      <point x="599" y="395"/>
      <point x="551" y="385"/>
      <point x="490" y="385" type="curve" smooth="yes"/>
      <point x="426" y="385"/>
      <point x="367" y="398"/>
      <point x="322" y="422" type="curve"/>
    </contour>
  </outline>
</glyph>
<glyph name="aiMatra_anusvara-deva" format="1">
  <advance width="474"/>
  <outline>
    <component base="aiMatra-deva" xOffset="-12"/>
    <component base="anusvara-deva" xOffset="388" yOffset="8"/>
    <contour>
      <point x="367" y="685" type="move" name="_top"/>
    </contour>
  </outline>
</glyph>
<glyph name="b-deva" format="1">
  <advance width="265"/>
  <outline>
    <contour>
      <point x="309" y="173" type="line"/>
      <point x="361" y="234" type="line"/>
      <point x="190" y="419" type="line"/>
      <point x="136" y="358" type="line"/>
    </contour>
    <component base="v-deva" xOffset="-18"/>
    <contour>
      <point x="143" y="685" type="move" name="top"/>
    </contour>
    <contour>
      <point x="150" y="0" type="move" name="bottom"/>
    </contour>
  </outline>
</glyph>
<glyph name="b_r-deva" format="1">
  <advance width="305"/>
  <outline>
    <contour>
      <point x="69" y="2" type="line"/>
      <point x="150" y="-85" type="line"/>
      <point x="484" y="197" type="line"/>
      <point x="428" y="298" type="line"/>
    </contour>
    <component base="b-deva"/>
    <contour>
      <point x="482" y="685" type="move" name="top"/>
    </contour>
    <contour>
      <point x="480" y="0" type="move" name="bottom"/>
    </contour>
  </outline>
</glyph>
<glyph name="brevebelow" format="1">
  <advance width="387"/>
  <outline>
    <contour>
      <point x="266" y="-56" type="line"/>
      <point x="266" y="-96"/>
      <point x="237" y="-123"/>
      <point x="193" y="-123" type="curve" smooth="yes"/>
      <point x="148" y="-123"/>
      <point x="121" y="-98"/>
      <point x="121" y="-56" type="curve"/>
      <point x="36" y="-56" type="line"/>
      <point x="36" y="-145"/>
      <point x="97" y="-202"/>
      <point x="193" y="-202" type="curve" smooth="yes"/>
      <point x="289" y="-202"/>
      <point x="351" y="-145"/>
      <point x="351" y="-56" type="curve"/>
    </contour>
  </outline>
</glyph>
<glyph name="ch-deva" format="1">
  <advance width="749"/>
  <outline>
    <contour>
      <point x="427" y="534"/>
      <point x="370" y="485"/>
      <point x="370" y="396" type="curve" smooth="yes"/>
      <point x="370" y="344"/>
      <point x="409" y="286"/>
      <point x="468" y="249" type="curve"/>
      <point x="534" y="317" type="line"/>
      <point x="508" y="340"/>
      <point x="494" y="365"/>
      <point x="494" y="387" type="curve" smooth="yes"/>
      <point x="494" y="408"/>
      <point x="508" y="424"/>
      <point x="534" y="424" type="curve" smooth="yes"/>
      <point x="563" y="424"/>
      <point x="578" y="400"/>
      <point x="578" y="354" type="curve" smooth="yes"/>
      <point x="578" y="237"/>
      <point x="475" y="157"/>
      <point x="318" y="157" type="curve" smooth="yes"/>
      <point x="244" y="157"/>
      <point x="203" y="191"/>
      <point x="203" y="242" type="curve" smooth="yes"/>
      <point x="203" y="293"/>
      <point x="234" y="313"/>
      <point x="293" y="313" type="curve" smooth="yes"/>
      <point x="302" y="313"/>
      <point x="307" y="313"/>
      <point x="331" y="311" type="curve"/>
      <point x="312" y="422" type="line"/>
      <point x="307" y="423"/>
      <point x="303" y="423"/>
      <point x="287" y="423" type="curve" smooth="yes"/>
      <point x="150" y="423"/>
      <point x="66" y="348"/>
      <point x="66" y="252" type="curve" smooth="yes"/>
      <point x="66" y="121"/>
      <point x="153" y="47"/>
      <point x="317" y="47" type="curve" smooth="yes"/>
      <point x="554" y="47"/>
      <point x="702" y="167"/>
      <point x="702" y="350" type="curve" smooth="yes"/>
      <point x="702" y="457"/>
      <point x="631" y="534"/>
      <point x="531" y="534" type="curve" smooth="yes"/>
    </contour>
    <contour>
      <point x="83" y="587"/>
      <point x="67" y="545"/>
      <point x="67" y="501" type="curve" smooth="yes"/>
      <point x="67" y="441"/>
      <point x="98" y="387"/>
      <point x="152" y="355" type="curve"/>
      <point x="251" y="399" type="line"/>
      <point x="222" y="417"/>
      <point x="195" y="454"/>
      <point x="195" y="495" type="curve" smooth="yes"/>
      <point x="195" y="534"/>
      <point x="214" y="571"/>
      <point x="245" y="595" type="curve"/>
      <point x="112" y="620" type="line"/>
    </contour>
    <contour>
      <point x="-20" y="685" type="line"/>
      <point x="-20" y="575" type="line"/>
      <point x="769" y="575" type="line"/>
      <point x="769" y="685" type="line"/>
    </contour>
    <contour>
      <point x="375" y="685" type="move" name="top"/>
    </contour>
    <contour>
      <point x="375" y="0" type="move" name="bottom"/>
    </contour>
  </outline>
</glyph>
<glyph name="d_b_ra-deva" format="1">
  <advance width="624"/>
  <outline>
    <contour>
      <point x="377" y="133" type="line"/>
      <point x="249" y="-158" type="line"/>
      <point x="329" y="-186" type="line"/>
      <point x="449" y="97" type="line"/>
    </contour>
    <component base="d_ba-deva"/>
    <contour>
      <point x="290" y="685" type="move" name="top"/>
    </contour>
    <contour>
      <point x="290" y="0" type="move" name="bottom"/>
    </contour>
  </outline>
</glyph>
<glyph name="d_ba-deva" format="1">
  <advance width="624"/>
  <outline>
    <contour>
      <point x="302" y="-20" type="line"/>
      <point x="349" y="22" type="line"/>
      <point x="189" y="186" type="line"/>
      <point x="147" y="137" type="line"/>
    </contour>
    <component base="d_va-deva"/>
    <contour>
      <point x="300" y="685" type="move" name="top"/>
    </contour>
    <contour>
      <point x="538" y="0" type="move" name="bottom"/>
    </contour>
  </outline>
</glyph>
<glyph name="d_ba_uMatra-deva" format="1">
  <advance width="624"/>
  <outline>
    <component base="d_ba-deva"/>
    <component base="uMatra-deva" xOffset="298"/>
    <contour>
      <point x="459" y="685" type="move" name="top"/>
    </contour>
    <contour>
      <point x="344" y="38" type="move" name="bottom"/>
    </contour>
  </outline>
</glyph>
<glyph name="d_bh_ya-deva" format="1">
  <advance width="1219"/>
  <outline>
    <component base="d_bha-deva" xOffset="-15"/>
    <component base="ya.connect" xOffset="665"/>
    <contour>
      <point x="1047" y="685" type="move" name="top"/>
    </contour>
    <contour>
      <point x="1047" y="0" type="move" name="bottom"/>
    </contour>
  </outline>
</glyph>
<glyph name="d_ddh_r_ya-deva" format="1">
  <advance width="1282"/>
  <outline>
    <component base="d_dha-deva"/>
    <component base="ya.connect" xOffset="728"/>
    <contour>
      <point x="1110" y="685" type="move" name="top"/>
    </contour>
    <contour>
      <point x="1110" y="0" type="move" name="bottom"/>
    </contour>
  </outline>
</glyph>
<glyph name="d_na_uMatra-deva" format="1">
  <advance width="611"/>
  <outline>
    <component base="d_na-deva"/>
    <component base="uMatra-deva" xOffset="305" yOffset="-2"/>
    <contour>
      <point x="446" y="685" type="move" name="top"/>
    </contour>
    <contour>
      <point x="328" y="38" type="move" name="bottom"/>
    </contour>
  </outline>
</glyph>
<glyph name="d_ra-deva" format="1">
  <advance width="611"/>
  <outline>
    <contour>
      <point x="-5" y="575" type="line"/>
      <point x="616" y="575" type="line"/>
      <point x="616" y="685" type="line"/>
      <point x="-5" y="685" type="line"/>
    </contour>
    <contour>
      <point x="407" y="49"/>
      <point x="434" y="13"/>
      <point x="515" y="-61" type="curve"/>
      <point x="585" y="18" type="line"/>
      <point x="514" y="79"/>
      <point x="483" y="113"/>
      <point x="459" y="194" type="curve"/>
      <point x="348" y="154" type="line"/>
    </contour>
    <contour>
      <point x="41" y="2" type="line"/>
      <point x="122" y="-85" type="line"/>
      <point x="405" y="154" type="line"/>
      <point x="272" y="191" type="line"/>
    </contour>
    <component base="da-deva-compo" xOffset="21"/>
    <contour>
      <point x="422" y="685" type="move" name="top"/>
    </contour>
    <contour>
      <point x="524" y="0" type="move" name="bottom"/>
    </contour>
  </outline>
</glyph>
<glyph name="g_na-deva" format="1">
  <advance width="649"/>
  <outline>
    <contour>
      <point x="142" y="31" type="line" smooth="yes"/>
      <point x="118" y="9"/>
      <point x="103" y="-10"/>
      <point x="103" y="-31" type="curve" smooth="yes"/>
      <point x="103" y="-76"/>
      <point x="176" y="-120"/>
      <point x="249" y="-120" type="curve" smooth="yes"/>
      <point x="294" y="-120"/>
      <point x="337" y="-97"/>
      <point x="337" y="-62" type="curve" smooth="yes"/>
      <point x="337" y="-35"/>
      <point x="310" y="-2"/>
      <point x="261" y="53" type="curve"/>
      <point x="185" y="-24" type="line"/>
      <point x="244" y="-81" type="line"/>
      <point x="268" y="5" type="line"/>
      <point x="487" y="191" type="line"/>
      <point x="448" y="312" type="line"/>
    </contour>
    <contour>
      <point x="488" y="-5" type="line"/>
      <point x="488" y="2" type="line"/>
    </contour>
    <contour>
      <point x="420" y="608" type="line"/>
      <point x="420" y="0" type="line"/>
      <point x="555" y="0" type="line"/>
      <point x="555" y="608" type="line"/>
    </contour>
    <contour>
      <point x="295" y="685" type="line"/>
      <point x="295" y="575" type="line"/>
      <point x="680" y="575" type="line"/>
      <point x="680" y="685" type="line"/>
    </contour>
    <component base="g-deva"/>
    <contour>
      <point x="554" y="685" type="move" name="imatra"/>
    </contour>
    <contour>
      <point x="176" y="40" type="move" name="nukta"/>
    </contour>
    <contour>
      <point x="488" y="685" type="move" name="top"/>
    </contour>
    <contour>
      <point x="488" y="0" type="move" name="bottom"/>
    </contour>
  </outline>
</glyph>
<glyph name="g_ra-deva" format="1">
  <advance width="659"/>
  <outline>
    <contour>
      <point x="114" y="32" type="line"/>
      <point x="195" y="-55" type="line"/>
      <point x="478" y="184" type="line"/>
      <point x="478" y="330" type="line"/>
    </contour>
    <component base="ga-deva"/>
    <contour>
      <point x="487" y="685" type="move" name="top"/>
    </contour>
    <contour>
      <point x="487" y="0" type="move" name="bottom"/>
    </contour>
  </outline>
</glyph>
<glyph name="iMatra-deva.08" format="1">
  <advance width="323"/>
  <outline>
    <contour>
      <point x="224" y="972"/>
      <point x="69" y="904"/>
      <point x="69" y="771" type="curve" smooth="yes"/>
      <point x="69" y="737"/>
      <point x="79" y="695"/>
      <point x="99" y="648" type="curve"/>
      <point x="233" y="648" type="line"/>
      <point x="213" y="680"/>
      <point x="204" y="715"/>
      <point x="204" y="757" type="curve" smooth="yes"/>
      <point x="204" y="827"/>
      <point x="311" y="860"/>
      <point x="560" y="860" type="curve" smooth="yes"/>
      <point x="763" y="860"/>
      <point x="1063" y="824"/>
      <point x="1450" y="740" type="curve"/>
      <point x="1507" y="829" type="line"/>
      <point x="1045" y="933"/>
      <point x="817" y="972"/>
      <point x="558" y="972" type="curve" smooth="yes"/>
    </contour>
    <contour>
      <point x="94" y="608" type="line"/>
      <point x="94" y="0" type="line"/>
      <point x="229" y="0" type="line"/>
      <point x="229" y="608" type="line"/>
    </contour>
    <contour>
      <point x="-31" y="685" type="line"/>
      <point x="-31" y="575" type="line"/>
      <point x="354" y="575" type="line"/>
      <point x="354" y="685" type="line"/>
    </contour>
    <contour>
      <point x="1507" y="829" type="move" name="imatra"/>
    </contour>
    <contour>
      <point x="161" y="0" type="move" name="bottom"/>
    </contour>
    <contour>
      <point x="1507" y="879" type="move" name="top"/>
    </contour>
  </outline>
</glyph>
<glyph name="iMatra_reph-deva.00" format="1">
  <advance width="323"/>
  <outline>
    <component base="iMatra-deva.00"/>
    <component base="reph-deva.imatra" xOffset="327" yOffset="138"/>
    <contour>
      <point x="552" y="798" type="move" name="imatra"/>
    </contour>
    <contour>
      <point x="161" y="0" type="move" name="bottom"/>
    </contour>
    <contour>
      <point x="538" y="1113" type="move" name="top"/>
    </contour>
  </outline>
</glyph>
<glyph name="iMatra_reph-deva.04" format="1">
  <advance width="323"/>
  <outline>
    <component base="iMatra-deva.04"/>
    <component base="reph-deva.imatra" xOffset="804" yOffset="153"/>
    <contour>
      <point x="1029" y="813" type="move" name="imatra"/>
    </contour>
    <contour>
      <point x="161" y="0" type="move" name="bottom"/>
    </contour>
    <contour>
      <point x="1015" y="1128" type="move" name="top"/>
    </contour>
  </outline>
</glyph>
<glyph name="iMatra_reph-deva.05" format="1">
  <advance width="323"/>
  <outline>
    <component base="iMatra-deva.05"/>
    <component base="reph-deva.imatra" xOffset="924" yOffset="157"/>
    <contour>
      <point x="1149" y="817" type="move" name="imatra"/>
    </contour>
    <contour>
      <point x="161" y="0" type="move" name="bottom"/>
    </contour>
    <contour>
      <point x="1135" y="1132" type="move" name="top"/>
    </contour>
  </outline>
</glyph>
<glyph name="iMatra_reph-deva.06" format="1">
  <advance width="323"/>
  <outline>
    <component base="iMatra-deva.06"/>
    <component base="reph-deva.imatra" xOffset="1043" yOffset="161"/>
    <contour>
      <point x="1268" y="821" type="move" name="imatra"/>
    </contour>
    <contour>
      <point x="161" y="0" type="move" name="bottom"/>
    </contour>
    <contour>
      <point x="1254" y="1136" type="move" name="top"/>
    </contour>
  </outline>
</glyph>
<glyph name="iMatra_reph-deva.10" format="1">
  <advance width="323"/>
  <outline>
    <component base="iMatra-deva.10"/>
    <component base="reph-deva.imatra" xOffset="1520" yOffset="177"/>
    <contour>
      <point x="1745" y="837" type="move" name="imatra"/>
    </contour>
    <contour>
      <point x="161" y="0" type="move" name="bottom"/>
    </contour>
    <contour>
      <point x="1731" y="1152" type="move" name="top"/>
    </contour>
  </outline>
</glyph>
<glyph name="kh_ra-deva" format="1">
  <advance width="971"/>
  <outline>
    <contour>
      <point x="742" y="685" type="line"/>
      <point x="742" y="0" type="line"/>
      <point x="877" y="0" type="line"/>
      <point x="877" y="575" type="line"/>
      <point x="991" y="575" type="line"/>
      <point x="991" y="685" type="line"/>
    </contour>
    <contour>
      <point x="25" y="295" type="line"/>
      <point x="137" y="87"/>
      <point x="269" y="-4"/>
      <point x="404" y="-4" type="curve"/>
      <point x="429" y="-4"/>
      <point x="452" y="-2"/>
      <point x="476" y="1" type="curve"/>
      <point x="441" y="113" type="line"/>
      <point x="304" y="119"/>
      <point x="251" y="170"/>
      <point x="154" y="325" type="curve"/>
    </contour>
    <contour>
      <point x="147" y="613" type="line"/>
      <point x="205" y="553"/>
      <point x="243" y="482"/>
      <point x="243" y="435" type="curve" smooth="yes"/>
      <point x="243" y="381"/>
      <point x="216" y="347"/>
      <point x="169" y="347" type="curve" smooth="yes"/>
      <point x="144" y="347"/>
      <point x="117" y="358"/>
      <point x="90" y="376" type="curve"/>
      <point x="24" y="295" type="line"/>
      <point x="54" y="257"/>
      <point x="112" y="238"/>
      <point x="171" y="238" type="curve" smooth="yes"/>
      <point x="300" y="238"/>
      <point x="378" y="309"/>
      <point x="378" y="433" type="curve" smooth="yes"/>
      <point x="378" y="501"/>
      <point x="337" y="581"/>
      <point x="257" y="670" type="curve"/>
    </contour>
    <contour>
      <point x="471" y="118" type="line"/>
      <point x="549" y="28" type="line"/>
      <point x="790" y="216" type="line"/>
      <point x="790" y="358" type="line"/>
    </contour>
    <contour>
      <point x="505" y="512"/>
      <point x="425" y="442"/>
      <point x="425" y="337" type="curve" smooth="yes"/>
      <point x="425" y="231"/>
      <point x="500" y="161"/>
      <point x="612" y="161" type="curve" smooth="yes"/>
      <point x="671" y="161"/>
      <point x="716" y="178"/>
      <point x="752" y="211" type="curve"/>
      <point x="752" y="346" type="line"/>
      <point x="721" y="296"/>
      <point x="682" y="271"/>
      <point x="626" y="271" type="curve" smooth="yes"/>
      <point x="585" y="271"/>
      <point x="560" y="296"/>
      <point x="560" y="337" type="curve" smooth="yes"/>
      <point x="560" y="378"/>
      <point x="587" y="402"/>
      <point x="633" y="402" type="curve" smooth="yes"/>
      <point x="648" y="402"/>
      <point x="664" y="400"/>
      <point x="675" y="398" type="curve"/>
      <point x="662" y="510" type="line"/>
      <point x="648" y="512"/>
      <point x="635" y="512"/>
      <point x="625" y="512" type="curve" smooth="yes"/>
    </contour>
    <contour>
      <point x="-20" y="685" type="line"/>
      <point x="-20" y="575" type="line"/>
      <point x="752" y="575" type="line"/>
      <point x="752" y="685" type="line"/>
    </contour>
    <contour>
      <point x="202" y="-80" type="move" name="nukta"/>
    </contour>
    <contour>
      <point x="486" y="0" type="move" name="bottom"/>
    </contour>
    <contour>
      <point x="814" y="685" type="move" name="top"/>
    </contour>
  </outline>
</glyph>
<glyph name="lVocalic-deva.loclMAR" format="1">
  <advance width="812"/>
  <outline>
    <contour>
      <point x="429" y="492"/>
      <point x="349" y="405"/>
      <point x="350" y="249" type="curve"/>
      <point x="464" y="249" type="line"/>
      <point x="465" y="331"/>
      <point x="501" y="383"/>
      <point x="557" y="383" type="curve" smooth="yes"/>
      <point x="593" y="383"/>
      <point x="614" y="364"/>
      <point x="614" y="329" type="curve" smooth="yes"/>
      <point x="614" y="222"/>
      <point x="488" y="238"/>
      <point x="488" y="85" type="curve" smooth="yes"/>
      <point x="488" y="-8"/>
      <point x="554" y="-64"/>
      <point x="659" y="-64" type="curve" smooth="yes"/>
      <point x="699" y="-64"/>
      <point x="741" y="-55"/>
      <point x="782" y="-37" type="curve"/>
      <point x="756" y="61" type="line"/>
      <point x="725" y="50"/>
      <point x="699" y="44"/>
      <point x="677" y="44" type="curve" smooth="yes"/>
      <point x="639" y="44"/>
      <point x="608" y="65"/>
      <point x="608" y="93" type="curve" smooth="yes"/>
      <point x="608" y="170"/>
      <point x="749" y="165"/>
      <point x="749" y="324" type="curve" smooth="yes"/>
      <point x="749" y="423"/>
      <point x="678" y="493"/>
      <point x="568" y="493" type="curve" smooth="yes"/>
    </contour>
    <contour>
      <point x="128" y="493"/>
      <point x="55" y="424"/>
      <point x="55" y="302" type="curve" smooth="yes"/>
      <point x="55" y="218"/>
      <point x="86" y="108"/>
      <point x="148" y="-23" type="curve"/>
      <point x="269" y="33" type="line"/>
      <point x="218" y="124"/>
      <point x="190" y="215"/>
      <point x="190" y="292" type="curve" smooth="yes"/>
      <point x="190" y="351"/>
      <point x="216" y="383"/>
      <point x="262" y="383" type="curve" smooth="yes"/>
      <point x="305" y="383"/>
      <point x="333" y="330"/>
      <point x="333" y="249" type="curve"/>
      <point x="437" y="249" type="line"/>
      <point x="437" y="400"/>
      <point x="369" y="493"/>
      <point x="259" y="493" type="curve" smooth="yes"/>
    </contour>
    <contour>
      <point x="-20" y="685" type="line"/>
      <point x="-20" y="575" type="line"/>
      <point x="832" y="575" type="line"/>
      <point x="832" y="685" type="line"/>
    </contour>
    <contour>
      <point x="493" y="607" type="line"/>
      <point x="493" y="438" type="line"/>
      <point x="628" y="438" type="line"/>
      <point x="628" y="607" type="line"/>
    </contour>
    <contour>
      <point x="564" y="685" type="move" name="top"/>
    </contour>
    <contour>
      <point x="406" y="0" type="move" name="bottom"/>
    </contour>
  </outline>
</glyph>
<glyph name="l_la-deva.loclMAR" format="1">
  <advance width="845"/>
  <outline>
    <contour>
      <point x="-30" y="685" type="line"/>
      <point x="-30" y="575" type="line"/>
      <point x="875" y="575" type="line"/>
      <point x="875" y="685" type="line"/>
    </contour>
    <contour>
      <point x="498" y="609" type="line"/>
      <point x="498" y="450" type="line"/>
      <point x="633" y="450" type="line"/>
      <point x="633" y="609" type="line"/>
    </contour>
    <contour>
      <point x="277" y="144" type="line"/>
      <point x="226" y="208"/>
      <point x="204" y="259"/>
      <point x="204" y="311" type="curve" smooth="yes"/>
      <point x="204" y="351"/>
      <point x="229" y="383"/>
      <point x="261" y="383" type="curve" smooth="yes"/>
      <point x="311" y="383"/>
      <point x="336" y="359"/>
      <point x="366" y="281" type="curve"/>
      <point x="457" y="344" type="line"/>
      <point x="409" y="453"/>
      <point x="355" y="493"/>
      <point x="258" y="493" type="curve" smooth="yes"/>
      <point x="149" y="493"/>
      <point x="70" y="420"/>
      <point x="70" y="319" type="curve" smooth="yes"/>
      <point x="70" y="232"/>
      <point x="96" y="163"/>
      <point x="171" y="73" type="curve"/>
    </contour>
    <contour>
      <point x="682" y="83" type="line"/>
      <point x="751" y="169"/>
      <point x="775" y="236"/>
      <point x="775" y="319" type="curve" smooth="yes"/>
      <point x="775" y="421"/>
      <point x="697" y="493"/>
      <point x="587" y="493" type="curve" smooth="yes"/>
      <point x="464" y="493"/>
      <point x="410" y="449"/>
      <point x="322" y="275" type="curve"/>
      <point x="427" y="219" type="line"/>
      <point x="499" y="355"/>
      <point x="526" y="383"/>
      <point x="580" y="383" type="curve" smooth="yes"/>
      <point x="617" y="383"/>
      <point x="641" y="352"/>
      <point x="641" y="311" type="curve" smooth="yes"/>
      <point x="641" y="260"/>
      <point x="620" y="210"/>
      <point x="570" y="147" type="curve"/>
    </contour>
    <contour>
      <point x="290" y="-170" type="line"/>
      <point x="229" y="-99"/>
      <point x="204" y="-44"/>
      <point x="204" y="12" type="curve" smooth="yes"/>
      <point x="204" y="52"/>
      <point x="229" y="84"/>
      <point x="261" y="84" type="curve" smooth="yes"/>
      <point x="311" y="84"/>
      <point x="336" y="60"/>
      <point x="366" y="-18" type="curve"/>
      <point x="457" y="45" type="line"/>
      <point x="409" y="154"/>
      <point x="355" y="194"/>
      <point x="258" y="194" type="curve" smooth="yes"/>
      <point x="149" y="194"/>
      <point x="70" y="121"/>
      <point x="70" y="20" type="curve" smooth="yes"/>
      <point x="70" y="-77"/>
      <point x="103" y="-152"/>
      <point x="200" y="-259" type="curve"/>
    </contour>
    <contour>
      <point x="633" y="-273" type="line"/>
      <point x="739" y="-158"/>
      <point x="775" y="-81"/>
      <point x="775" y="20" type="curve" smooth="yes"/>
      <point x="775" y="122"/>
      <point x="697" y="194"/>
      <point x="587" y="194" type="curve" smooth="yes"/>
      <point x="464" y="194"/>
      <point x="410" y="150"/>
      <point x="322" y="-24" type="curve"/>
      <point x="427" y="-80" type="line"/>
      <point x="499" y="56"/>
      <point x="526" y="84"/>
      <point x="580" y="84" type="curve" smooth="yes"/>
      <point x="617" y="84"/>
      <point x="641" y="53"/>
      <point x="641" y="12" type="curve" smooth="yes"/>
      <point x="641" y="-48"/>
      <point x="613" y="-106"/>
      <point x="543" y="-184" type="curve"/>
    </contour>
    <contour>
      <point x="570" y="685" type="move" name="top"/>
    </contour>
    <contour>
      <point x="412" y="0" type="move" name="bottom"/>
    </contour>
  </outline>
</glyph>
<glyph name="ng-deva" format="1">
  <advance width="717"/>
  <outline>
    <component base="nga-deva"/>
    <component base="halant-deva" xOffset="209"/>
    <contour>
      <point x="437" y="685" type="move" name="top"/>
    </contour>
  </outline>
</glyph>
<glyph name="nn_ra-deva" format="1">
  <advance width="765"/>
  <outline>
    <contour>
      <point x="219" y="32" type="line"/>
      <point x="300" y="-55" type="line"/>
      <point x="583" y="184" type="line"/>
      <point x="583" y="330" type="line"/>
    </contour>
    <component base="nna-deva"/>
    <contour>
      <point x="598" y="685" type="move" name="top"/>
    </contour>
    <contour>
      <point x="598" y="0" type="move" name="bottom"/>
    </contour>
  </outline>
</glyph>
<glyph name="ny-deva" format="1">
  <advance width="484"/>
  <outline>
    <contour>
      <point x="377" y="495"/>
      <point x="267" y="495" type="curve" smooth="yes"/>
      <point x="211" y="495"/>
      <point x="157" y="482"/>
      <point x="115" y="457" type="curve"/>
      <point x="153" y="358" type="line"/>
      <point x="182" y="374"/>
      <point x="220" y="384"/>
      <point x="252" y="384" type="curve" smooth="yes"/>
      <point x="305" y="384"/>
      <point x="355" y="360"/>
      <point x="355" y="298" type="curve" smooth="yes"/>
      <point x="355" y="244"/>
      <point x="321" y="212"/>
      <point x="261" y="212" type="curve" smooth="yes"/>
      <point x="190" y="212"/>
      <point x="138" y="247"/>
      <point x="96" y="314" type="curve"/>
      <point x="14" y="257" type="line"/>
      <point x="80" y="145"/>
      <point x="171" y="102"/>
      <point x="273" y="102" type="curve" smooth="yes"/>
      <point x="409" y="102"/>
      <point x="490" y="175"/>
      <point x="490" y="298" type="curve" smooth="yes"/>
      <point x="490" y="435"/>
    </contour>
    <contour>
      <point x="432" y="258" type="line"/>
      <point x="457" y="246"/>
      <point x="492" y="241"/>
      <point x="527" y="241" type="curve" smooth="yes"/>
      <point x="565" y="241"/>
      <point x="602" y="247"/>
      <point x="628" y="259" type="curve"/>
      <point x="613" y="361" type="line"/>
      <point x="583" y="355"/>
      <point x="552" y="351"/>
      <point x="520" y="351" type="curve" smooth="yes"/>
      <point x="490" y="351"/>
      <point x="460" y="355"/>
      <point x="433" y="363" type="curve"/>
    </contour>
    <contour>
      <point x="-30" y="685" type="line"/>
      <point x="-30" y="575" type="line"/>
      <point x="514" y="575" type="line"/>
      <point x="514" y="685" type="line"/>
    </contour>
    <contour>
      <point x="286" y="685" type="move" name="top"/>
    </contour>
    <contour>
      <point x="286" y="0" type="move" name="bottom"/>
    </contour>
  </outline>
</glyph>
<glyph name="oMatra_anusvara-deva" format="1">
  <advance width="310"/>
  <outline>
    <component base="oMatra-deva"/>
    <component base="anusvara-deva" xOffset="155"/>
    <contour>
      <point x="284" y="905" type="move" name="top"/>
    </contour>
  </outline>
</glyph>
<glyph name="p_ra-deva" format="1">
  <advance width="625"/>
  <outline>
    <contour>
      <point x="68" y="74" type="line"/>
      <point x="149" y="-13" type="line"/>
      <point x="432" y="226" type="line"/>
      <point x="432" y="372" type="line"/>
    </contour>
    <component base="pa-deva"/>
    <contour>
      <point x="444" y="685" type="move" name="top"/>
    </contour>
    <contour>
      <point x="444" y="0" type="move" name="bottom"/>
    </contour>
  </outline>
</glyph>
<glyph name="p_tta-deva" format="1">
  <advance width="592"/>
  <outline>
    <contour>
      <point x="90" y="609" type="line"/>
      <point x="90" y="383" type="line" smooth="yes"/>
      <point x="90" y="263"/>
      <point x="181" y="183"/>
      <point x="306" y="183" type="curve"/>
      <point x="316" y="293" type="line"/>
      <point x="258" y="293"/>
      <point x="225" y="331"/>
      <point x="225" y="383" type="curve" smooth="yes"/>
      <point x="225" y="609" type="line"/>
    </contour>
    <contour>
      <point x="365" y="608" type="line"/>
      <point x="365" y="183" type="line"/>
      <point x="500" y="183" type="line"/>
      <point x="500" y="608" type="line"/>
    </contour>
    <contour>
      <point x="-20" y="685" type="line"/>
      <point x="-20" y="575" type="line"/>
      <point x="612" y="575" type="line"/>
      <point x="612" y="685" type="line"/>
    </contour>
    <contour>
      <point x="385" y="419" type="line"/>
      <point x="385" y="293" type="line"/>
      <point x="305" y="293" type="line" smooth="yes"/>
      <point x="153" y="293"/>
      <point x="74" y="232"/>
      <point x="74" y="127" type="curve" smooth="yes"/>
      <point x="74" y="-8"/>
      <point x="202" y="-67"/>
      <point x="341" y="-67" type="curve" smooth="yes"/>
      <point x="415" y="-67"/>
      <point x="493" y="-50"/>
      <point x="556" y="-19" type="curve"/>
      <point x="506" y="75" type="line"/>
      <point x="456" y="52"/>
      <point x="392" y="36"/>
      <point x="338" y="36" type="curve" smooth="yes"/>
      <point x="277" y="36"/>
      <point x="228" y="57"/>
      <point x="228" y="114" type="curve" smooth="yes"/>
      <point x="228" y="158"/>
      <point x="260" y="183"/>
      <point x="320" y="183" type="curve" smooth="yes"/>
      <point x="500" y="183" type="line"/>
      <point x="500" y="419" type="line"/>
    </contour>
    <contour>
      <point x="179" y="685" type="move" name="top"/>
    </contour>
    <contour>
      <point x="179" y="0" type="move" name="bottom"/>
    </contour>
  </outline>
</glyph>
<glyph name="puso" format="1">
  <advance width="257"/>
  <outline>
    <contour>
      <point x="50" y="709" type="line"/>
      <point x="80" y="530" type="line"/>
      <point x="86" y="378" type="line"/>
      <point x="179" y="378" type="line"/>
      <point x="179" y="709" type="line"/>
    </contour>
  </outline>
</glyph>
<glyph name="sh_rVocalic-deva" format="1">
  <advance width="822"/>
  <outline>
    <contour>
      <point x="143" y="676"/>
      <point x="72" y="621"/>
      <point x="72" y="489" type="curve" smooth="yes"/>
      <point x="72" y="354"/>
      <point x="222" y="232"/>
      <point x="431" y="232" type="curve" smooth="yes"/>
      <point x="498" y="232"/>
      <point x="571" y="246"/>
      <point x="647" y="278" type="curve"/>
      <point x="606" y="377" type="line"/>
      <point x="546" y="351"/>
      <point x="489" y="341"/>
      <point x="439" y="341" type="curve" smooth="yes"/>
      <point x="297" y="341"/>
      <point x="203" y="414"/>
      <point x="203" y="494" type="curve" smooth="yes"/>
      <point x="203" y="535"/>
      <point x="216" y="566"/>
      <point x="257" y="566" type="curve" smooth="yes"/>
      <point x="291" y="566"/>
      <point x="313" y="540"/>
      <point x="313" y="500" type="curve" smooth="yes"/>
      <point x="313" y="395"/>
      <point x="174" y="323"/>
      <point x="30" y="294" type="curve"/>
      <point x="56" y="188" type="line"/>
      <point x="263" y="223"/>
      <point x="438" y="327"/>
      <point x="438" y="477" type="curve" smooth="yes"/>
      <point x="438" y="595"/>
      <point x="367" y="676"/>
      <point x="263" y="676" type="curve" smooth="yes"/>
    </contour>
    <contour>
      <point x="582" y="608" type="line"/>
      <point x="582" y="0" type="line"/>
      <point x="717" y="0" type="line"/>
      <point x="717" y="608" type="line"/>
    </contour>
    <contour>
      <point x="457" y="685" type="line"/>
      <point x="457" y="575" type="line"/>
      <point x="842" y="575" type="line"/>
      <point x="842" y="685" type="line"/>
    </contour>
    <contour>
      <point x="699" y="-162"/>
      <point x="670" y="-162" type="curve" smooth="yes"/>
      <point x="638" y="-162"/>
      <point x="626" y="-143"/>
      <point x="626" y="-122" type="curve" smooth="yes"/>
      <point x="626" y="-74"/>
      <point x="693" y="-69"/>
      <point x="745" y="-69" type="curve"/>
      <point x="704" y="28" type="line"/>
      <point x="569" y="28"/>
      <point x="506" y="-32"/>
      <point x="506" y="-122" type="curve" smooth="yes"/>
      <point x="506" y="-184"/>
      <point x="544" y="-270"/>
      <point x="658" y="-270" type="curve" smooth="yes"/>
      <point x="697" y="-270"/>
      <point x="751" y="-261"/>
      <point x="816" y="-208" type="curve"/>
      <point x="767" y="-120" type="line"/>
      <point x="718" y="-153"/>
    </contour>
    <contour>
      <point x="716" y="685" type="move" name="imatra"/>
    </contour>
    <contour>
      <point x="647" y="0" type="move" name="bottom"/>
    </contour>
    <contour>
      <point x="647" y="685" type="move" name="top"/>
    </contour>
  </outline>
</glyph>
<glyph name="sha-deva.loclMAR" format="1">
  <advance width="740"/>
  <outline>
    <component base="sh-deva.loclMAR"/>
    <component base="aaMatra-deva" xOffset="395"/>
    <contour>
      <point x="568" y="687" type="move" name="top"/>
    </contour>
    <contour>
      <point x="568" y="0" type="move" name="bottom"/>
    </contour>
  </outline>
</glyph>
<glyph name="th-deva" format="1">
  <advance width="435"/>
  <outline>
    <contour>
      <point x="549" y="338" type="line"/>
      <point x="508" y="256"/>
      <point x="431" y="204"/>
      <point x="354" y="204" type="curve" smooth="yes"/>
      <point x="289" y="204"/>
      <point x="241" y="236"/>
      <point x="227" y="289" type="curve"/>
      <point x="329" y="326"/>
      <point x="399" y="413"/>
      <point x="399" y="515" type="curve" smooth="yes"/>
      <point x="399" y="621"/>
      <point x="331" y="687"/>
      <point x="222" y="687" type="curve" smooth="yes"/>
      <point x="111" y="687"/>
      <point x="42" y="626"/>
      <point x="42" y="530" type="curve" smooth="yes"/>
      <point x="42" y="492"/>
      <point x="51" y="460"/>
      <point x="68" y="437" type="curve"/>
      <point x="193" y="473" type="line"/>
      <point x="183" y="488"/>
      <point x="177" y="509"/>
      <point x="177" y="527" type="curve" smooth="yes"/>
      <point x="177" y="559"/>
      <point x="194" y="577"/>
      <point x="222" y="577" type="curve"/>
      <point x="248" y="577"/>
      <point x="264" y="555"/>
      <point x="264" y="515" type="curve" smooth="yes"/>
      <point x="264" y="439"/>
      <point x="206" y="394"/>
      <point x="61" y="351" type="curve"/>
      <point x="94" y="181"/>
      <point x="188" y="94"/>
      <point x="353" y="94" type="curve" smooth="yes"/>
      <point x="439" y="94"/>
      <point x="531" y="137"/>
      <point x="603" y="211" type="curve"/>
    </contour>
    <contour>
      <point x="222" y="687" type="move" name="top"/>
    </contour>
    <contour>
      <point x="218" y="0" type="move" name="bottom"/>
    </contour>
  </outline>
</glyph>
<glyph name="th_ra-deva" format="1">
  <advance width="780"/>
  <outline>
    <contour>
      <point x="179" y="2" type="line"/>
      <point x="260" y="-85" type="line"/>
      <point x="543" y="154" type="line"/>
      <point x="543" y="300" type="line"/>
    </contour>
    <component base="tha-deva"/>
    <contour>
      <point x="606" y="685" type="move" name="top"/>
    </contour>
    <contour>
      <point x="606" y="0" type="move" name="bottom"/>
    </contour>
  </outline>
</glyph>
<glyph name="tt_ttha-deva" format="1">
  <advance width="579"/>
  <outline>
    <contour>
      <point x="-20" y="685" type="line"/>
      <point x="-20" y="575" type="line"/>
      <point x="599" y="575" type="line"/>
      <point x="599" y="685" type="line"/>
    </contour>
    <component base="tth_compo" xOffset="27" yOffset="-409"/>
    <component base="tt_compo" xOffset="29"/>
    <contour>
      <point x="420" y="685" type="move" name="top"/>
    </contour>
    <contour>
      <point x="291" y="-245" type="move" name="bottom"/>
    </contour>
  </outline>
</glyph>
<glyph name="ya.connect" format="1">
  <advance width="554"/>
  <outline>
    <contour>
      <point x="-73" y="575" type="line"/>
      <point x="314" y="575" type="line"/>
      <point x="314" y="184" type="line"/>
      <point x="292" y="175"/>
      <point x="270" y="170"/>
      <point x="249" y="170" type="curve" smooth="yes"/>
      <point x="186" y="170"/>
      <point x="139" y="193"/>
      <point x="116" y="235" type="curve"/>
      <point x="195" y="274"/>
      <point x="236" y="335"/>
      <point x="236" y="416" type="curve" smooth="yes"/>
      <point x="236" y="481"/>
      <point x="189" y="524"/>
      <point x="120" y="524" type="curve" smooth="yes"/>
      <point x="-179" y="524" type="line"/>
      <point x="-179" y="415" type="line"/>
      <point x="77" y="415" type="line"/>
      <point x="94" y="416"/>
      <point x="105" y="406"/>
      <point x="105" y="389" type="curve" smooth="yes"/>
      <point x="105" y="343"/>
      <point x="57" y="305"/>
      <point x="-33" y="281" type="curve"/>
      <point x="7" y="129"/>
      <point x="94" y="60"/>
      <point x="248" y="60" type="curve" smooth="yes"/>
      <point x="269" y="60"/>
      <point x="291" y="63"/>
      <point x="314" y="68" type="curve"/>
      <point x="314" y="0" type="line"/>
      <point x="449" y="0" type="line"/>
      <point x="449" y="575" type="line"/>
      <point x="574" y="575" type="line"/>
      <point x="574" y="685" type="line"/>
      <point x="-73" y="685" type="line"/>
    </contour>
    <contour>
      <point x="382" y="685" type="move" name="top"/>
    </contour>
    <contour>
      <point x="382" y="0" type="move" name="bottom"/>
    </contour>
  </outline>
</glyph>
